<svg width="24" height="24" viewBox="0 0 24 24" fill="none" xmlns="http://www.w3.org/2000/svg">
<path d="M2.48278 2.89648C1.11145 2.89648 0 4.00794 0 5.37923C0 6.75052 1.11145 7.86201 2.48278 7.86201C3.85408 7.86201 4.96553 6.75056 4.96553 5.37923C4.96553 4.0079 3.85408 2.89648 2.48278 2.89648ZM2.48278 9.51715C1.11145 9.51715 0 10.6286 0 11.9999C0 13.3713 1.11145 14.4827 2.48278 14.4827C3.85408 14.4827 4.96553 13.3713 4.96553 11.9999C4.96553 10.6286 3.85408 9.51715 2.48278 9.51715ZM2.48278 16.1379C1.11145 16.1379 0 17.2493 0 18.6206C0 19.9919 1.11145 21.1034 2.48278 21.1034C3.85408 21.1034 4.96553 19.9919 4.96553 18.6206C4.96553 17.2493 3.85408 16.1379 2.48278 16.1379ZM9.10345 7.03441H22.3448C23.2593 7.03441 24 6.2937 24 5.37923C24 4.46476 23.2593 3.72405 22.3448 3.72405H9.10345C8.18898 3.72405 7.44827 4.46476 7.44827 5.37923C7.44827 6.2937 8.18898 7.03441 9.10345 7.03441ZM22.3448 10.3448H9.10345C8.18898 10.3448 7.44827 11.0855 7.44827 11.9999C7.44827 12.9144 8.18898 13.6551 9.10345 13.6551H22.3448C23.2593 13.6551 24 12.9144 24 11.9999C24 11.0855 23.2593 10.3448 22.3448 10.3448ZM22.3448 16.9655H9.10345C8.18898 16.9655 7.44827 17.7061 7.44827 18.6206C7.44827 19.5351 8.18898 20.2758 9.10345 20.2758H22.3448C23.2593 20.2758 24 19.5351 24 18.6206C24 17.7061 23.2593 16.9655 22.3448 16.9655Z"/>
</svg>
