<svg width="51" height="41" viewBox="0 0 51 41" fill="none" xmlns="http://www.w3.org/2000/svg">
<path d="M45.0938 8.03125H38.5254C38.1914 8.03125 37.7773 7.81527 37.4544 7.47461L34.5666 2.91684C34.5209 2.8445 34.4699 2.77566 34.414 2.71088C33.4165 1.5475 32.0684 0.90625 30.6211 0.90625H20.3789C18.9316 0.90625 17.5835 1.5475 16.586 2.71088C16.5301 2.77566 16.4791 2.8445 16.4334 2.91684L13.5456 7.48129C13.2984 7.7507 12.9511 8.03793 12.5859 8.03793V7.1473C12.5859 6.67489 12.3983 6.22182 12.0642 5.88777C11.7302 5.55372 11.2771 5.36605 10.8047 5.36605H8.13281C7.6604 5.36605 7.20733 5.55372 6.87328 5.88777C6.53923 6.22182 6.35156 6.67489 6.35156 7.1473V8.03793H5.90625C4.48945 8.0394 3.1311 8.60288 2.12928 9.60471C1.12745 10.6065 0.563974 11.9649 0.5625 13.3817V34.75C0.563974 36.1668 1.12745 37.5251 2.12928 38.527C3.1311 39.5288 4.48945 40.0923 5.90625 40.0938H45.0938C46.5105 40.0923 47.8689 39.5288 48.8707 38.527C49.8726 37.5251 50.436 36.1668 50.4375 34.75V13.375C50.436 11.9582 49.8726 10.5999 48.8707 9.59802C47.8689 8.5962 46.5105 8.03272 45.0938 8.03125ZM25.5 32.9688C23.3862 32.9688 21.3199 32.3419 19.5623 31.1676C17.8048 29.9932 16.4349 28.3241 15.626 26.3712C14.8171 24.4183 14.6055 22.2694 15.0179 20.1962C15.4302 18.1231 16.4481 16.2187 17.9428 14.724C19.4375 13.2294 21.3418 12.2115 23.415 11.7991C25.4881 11.3867 27.637 11.5984 29.5899 12.4073C31.5428 13.2162 33.212 14.586 34.3863 16.3436C35.5607 18.1011 36.1875 20.1675 36.1875 22.2812C36.1843 25.1148 35.0572 27.8313 33.0536 29.8349C31.05 31.8385 28.3335 32.9655 25.5 32.9688Z" fill="white"/>
</svg>
