<svg width="12" height="13" viewBox="0 0 12 13" fill="none" xmlns="http://www.w3.org/2000/svg">
<g clip-path="url(#clip0_4196_686)">
<path d="M8.13783 7.55994L6.46469 6.30509V3.74895C6.46469 3.49193 6.25694 3.28418 5.99992 3.28418C5.74291 3.28418 5.53516 3.49193 5.53516 3.74895V6.5375C5.53516 6.68389 5.60395 6.82193 5.72106 6.90931L7.58008 8.30358C7.66373 8.36633 7.76135 8.39654 7.85847 8.39654C8.00022 8.39654 8.13965 8.33286 8.23076 8.21016C8.38509 8.00518 8.34326 7.71378 8.13783 7.55994Z" fill="#959595"/>
<path d="M6 0.5C2.6914 0.5 0 3.1914 0 6.5C0 9.8086 2.6914 12.5 6 12.5C9.3086 12.5 12 9.8086 12 6.5C12 3.1914 9.3086 0.5 6 0.5ZM6 11.5705C3.20449 11.5705 0.929508 9.29551 0.929508 6.5C0.929508 3.70449 3.20449 1.42951 6 1.42951C8.79598 1.42951 11.0705 3.70449 11.0705 6.5C11.0705 9.29551 8.79551 11.5705 6 11.5705Z" fill="#959595"/>
</g>
<defs>
<clipPath id="clip0_4196_686">
<rect width="12" height="12" fill="white" transform="translate(0 0.5)"/>
</clipPath>
</defs>
</svg>
