<svg width="235" height="236" viewBox="0 0 235 236" fill="none" xmlns="http://www.w3.org/2000/svg">
<g filter="url(#filter0_d_513_7880)">
<path d="M77.6447 215H80.6095V198.09H77.6213L73.2033 201.195V203.973L77.5744 200.973H77.6447V215ZM95.3053 215.293C99.442 215.293 101.95 211.93 101.95 206.551V206.527C101.95 201.148 99.442 197.797 95.3053 197.797C91.1569 197.797 88.6608 201.148 88.6608 206.527V206.551C88.6608 211.93 91.1569 215.293 95.3053 215.293ZM95.3053 212.82C93.0202 212.82 91.7077 210.453 91.7077 206.551V206.527C91.7077 202.625 93.0202 200.281 95.3053 200.281C97.5788 200.281 98.903 202.625 98.903 206.527V206.551C98.903 210.453 97.5788 212.82 95.3053 212.82ZM110.37 215.293C114.507 215.293 117.015 211.93 117.015 206.551V206.527C117.015 201.148 114.507 197.797 110.37 197.797C106.222 197.797 103.725 201.148 103.725 206.527V206.551C103.725 211.93 106.222 215.293 110.37 215.293ZM110.37 212.82C108.085 212.82 106.772 210.453 106.772 206.551V206.527C106.772 202.625 108.085 200.281 110.37 200.281C112.643 200.281 113.968 202.625 113.968 206.527V206.551C113.968 210.453 112.643 212.82 110.37 212.82ZM125.435 215.293C129.571 215.293 132.079 211.93 132.079 206.551V206.527C132.079 201.148 129.571 197.797 125.435 197.797C121.286 197.797 118.79 201.148 118.79 206.527V206.551C118.79 211.93 121.286 215.293 125.435 215.293ZM125.435 212.82C123.15 212.82 121.837 210.453 121.837 206.551V206.527C121.837 202.625 123.15 200.281 125.435 200.281C127.708 200.281 129.032 202.625 129.032 206.527V206.551C129.032 210.453 127.708 212.82 125.435 212.82ZM144.209 219.348C147.806 219.348 150.068 217.461 150.068 214.648V202.578H147.15V204.688H147.08C146.377 203.258 145.017 202.32 143.259 202.32C140.119 202.32 138.091 204.734 138.091 208.66V208.672C138.091 212.539 140.095 214.93 143.212 214.93C144.994 214.93 146.4 214.086 147.091 212.762H147.15V214.555C147.15 216.137 146.107 217.145 144.209 217.145C142.685 217.145 141.689 216.605 141.373 215.891L141.337 215.797H138.466L138.49 215.902C138.841 217.848 140.916 219.348 144.209 219.348ZM144.127 212.68C142.252 212.68 141.068 211.168 141.068 208.719V208.707C141.068 206.293 142.252 204.781 144.127 204.781C145.931 204.781 147.162 206.316 147.162 208.719V208.73C147.162 211.145 145.943 212.68 144.127 212.68ZM157.82 219.348C161.418 219.348 163.68 217.461 163.68 214.648V202.578H160.762V204.688H160.691C159.988 203.258 158.629 202.32 156.871 202.32C153.73 202.32 151.703 204.734 151.703 208.66V208.672C151.703 212.539 153.707 214.93 156.824 214.93C158.605 214.93 160.012 214.086 160.703 212.762H160.762V214.555C160.762 216.137 159.719 217.145 157.82 217.145C156.297 217.145 155.301 216.605 154.984 215.891L154.949 215.797H152.078L152.101 215.902C152.453 217.848 154.527 219.348 157.82 219.348ZM157.738 212.68C155.863 212.68 154.68 211.168 154.68 208.719V208.707C154.68 206.293 155.863 204.781 157.738 204.781C159.543 204.781 160.773 206.316 160.773 208.719V208.73C160.773 211.145 159.555 212.68 157.738 212.68Z" fill="url(#paint0_linear_513_7880)"/>
</g>
<path d="M73.5582 192.83C76.6013 194.607 98.6614 162.498 122.831 121.112C147 79.7256 164.126 44.7349 161.083 42.9577C158.04 41.1805 135.98 73.2899 111.811 114.676C87.6414 156.062 70.5152 191.053 73.5582 192.83Z" fill="url(#paint1_radial_513_7880)"/>
<path d="M114.103 123.404C73.3294 99.5922 41.9928 77.9665 43.7626 74.936C45.5324 71.9055 80.0406 88.733 120.539 112.384C161.038 136.035 192.65 157.822 190.88 160.852C189.11 163.883 154.878 147.216 114.103 123.404Z" fill="url(#paint2_radial_513_7880)"/>
<path d="M88.683 166.933C115.767 182.75 150.544 173.617 166.361 146.533C182.178 119.449 173.044 84.672 145.96 68.8552C118.877 53.0385 84.0994 62.1721 68.2827 89.2556C52.466 116.339 61.5995 151.117 88.683 166.933Z" fill="url(#paint3_radial_513_7880)" fill-opacity="0.2"/>
<path d="M147.143 124.599L147.128 132.789C147.128 129.161 144.747 125.518 139.957 122.764C137.59 121.387 134.836 120.369 131.91 119.68C123.133 117.629 112.691 118.647 105.605 122.764C100.93 125.489 98.5773 129.061 98.563 132.646L98.5917 124.457C98.6061 120.885 100.944 117.314 105.634 114.589C112.72 110.472 123.161 109.439 131.939 111.49C134.865 112.179 137.605 113.211 139.986 114.574C144.762 117.342 147.157 120.971 147.143 124.599V124.599Z" fill="#F2BC36"/>
<path d="M147.145 124.598L147.121 132.783C147.111 136.363 144.763 139.937 140.071 142.663L140.094 134.479C144.786 131.753 147.134 128.178 147.145 124.598V124.598Z" fill="#F9C73A"/>
<path d="M98.5684 132.644L98.5916 124.459C98.5813 128.084 100.968 131.715 105.747 134.474C115.252 139.962 130.66 139.962 140.094 134.479L140.071 142.664C130.637 148.146 115.229 148.146 105.724 142.658C100.945 139.899 98.5581 136.269 98.5684 132.644V132.644Z" fill="#F9C73A"/>
<path d="M139.982 116.756C149.488 122.244 149.538 131.168 140.094 136.657C130.66 142.139 115.252 142.139 105.747 136.651C96.2503 131.169 96.1998 122.244 105.634 116.761C115.078 111.273 130.486 111.273 139.982 116.756V116.756Z" fill="#F9C73A"/>
<path d="M154.328 124.618L154.305 132.803C154.292 137.439 151.246 142.068 145.163 145.603C132.917 152.72 112.991 152.714 100.665 145.598C94.4625 142.017 91.3647 137.316 91.378 132.623L91.4012 124.439C91.3879 129.132 94.4857 133.832 100.688 137.414C113.014 144.53 132.94 144.535 145.186 137.419C151.27 133.883 154.315 129.254 154.328 124.618Z" fill="#F2BC36"/>
<path d="M145.041 111.638C157.367 118.755 157.432 130.302 145.186 137.419C132.94 144.535 113.015 144.53 100.689 137.413C88.3627 130.297 88.2975 118.761 100.543 111.644C112.789 104.528 132.715 104.522 145.041 111.638ZM105.747 134.474C115.253 139.962 130.66 139.962 140.095 134.479C149.539 128.991 149.488 120.066 139.982 114.578C130.486 109.096 115.079 109.096 105.635 114.584C96.2002 120.067 96.2507 128.991 105.747 134.474Z" fill="#FED44C"/>
<path d="M134.705 118.884L134.7 120.571L133.374 121.341L133.379 119.655L134.705 118.884Z" fill="#F2BC36"/>
<path d="M123.427 122.854L123.432 121.167C123.433 120.775 123.721 120.415 124.288 120.085C124.872 119.746 125.583 119.593 126.412 119.624C127.249 119.651 128.093 119.872 128.945 120.288L128.94 121.975C128.088 121.559 127.244 121.338 126.407 121.311C125.578 121.28 124.867 121.433 124.283 121.772C123.716 122.102 123.428 122.462 123.427 122.854V122.854Z" fill="#F2BC36"/>
<path d="M130.544 121.302L130.539 122.989L125.656 125.827L125.661 124.14L130.544 121.302Z" fill="#F2BC36"/>
<path d="M132.78 124.334L132.775 126.021C132.439 124.885 131.69 123.874 130.539 122.989L130.544 121.302C131.694 122.187 132.444 123.198 132.78 124.334Z" fill="#F2BC36"/>
<path d="M136.874 123.93L136.869 125.617L132.775 126.021L132.78 124.334L136.874 123.93Z" fill="#F2BC36"/>
<path d="M118.742 122.595L118.747 120.909C118.747 121.001 118.754 121.094 118.769 121.188C118.92 122.157 119.749 123.35 121.252 124.758L121.247 126.445C119.744 125.037 118.915 123.844 118.764 122.875C118.749 122.781 118.742 122.688 118.742 122.595Z" fill="#F2BC36"/>
<path d="M123.635 127.865L123.63 129.552C123.63 129.532 123.63 129.512 123.628 129.492C123.6 129.065 123.214 128.455 122.479 127.673L122.484 125.986C123.219 126.768 123.605 127.378 123.633 127.806C123.634 127.825 123.635 127.845 123.635 127.865Z" fill="#F2BC36"/>
<path d="M122.484 125.986L122.479 127.673L117.799 130.393L117.804 128.706L122.484 125.986Z" fill="#F2BC36"/>
<path d="M113.37 129.339L113.365 131.026C111.216 129.504 110.021 127.719 109.766 125.663L109.77 123.976C110.026 126.032 111.221 127.817 113.37 129.339Z" fill="#F2BC36"/>
<path d="M113.151 131.41L113.146 133.097L111.468 132.128L111.473 130.441L113.151 131.41Z" fill="#F2BC36"/>
<path d="M115.021 130.323L115.016 132.01L113.146 133.097L113.151 131.41L115.021 130.323Z" fill="#F2BC36"/>
<path d="M128.276 128.119L128.272 129.806C128.269 130.71 127.577 131.56 126.2 132.361C124.677 133.245 122.901 133.65 120.873 133.581C118.838 133.509 116.886 132.982 115.017 132.01L115.021 130.323C116.89 131.295 118.842 131.822 120.878 131.894C122.906 131.963 124.682 131.559 126.204 130.674C127.582 129.873 128.274 129.023 128.276 128.119Z" fill="#F2BC36"/>
<path d="M128.256 127.843C128.407 128.85 127.721 129.792 126.205 130.674C124.682 131.558 122.906 131.963 120.878 131.894C118.843 131.822 116.89 131.295 115.022 130.323L113.151 131.41L111.473 130.441L113.37 129.339C111.221 127.817 110.026 126.032 109.771 123.976L113.944 123.762C114.144 125.345 114.895 126.654 116.205 127.691L121.252 124.758C119.75 123.35 118.92 122.157 118.77 121.188C118.613 120.215 119.286 119.296 120.789 118.423C122.285 117.553 124.035 117.141 126.043 117.198C128.058 117.252 129.951 117.744 131.728 118.67L133.027 117.915L134.705 118.884L133.379 119.654C135.157 120.841 136.324 122.267 136.874 123.93L132.78 124.334C132.444 123.198 131.695 122.187 130.544 121.302L125.661 124.14L125.74 124.186C127.269 125.616 128.119 126.836 128.256 127.843V127.843ZM120.521 129.43C121.41 129.48 122.154 129.331 122.764 128.976C123.368 128.625 123.662 128.233 123.633 127.805C123.605 127.378 123.219 126.768 122.484 125.986L117.804 128.706C118.729 129.14 119.632 129.381 120.521 129.43ZM124.449 122.9L128.945 120.288C128.093 119.872 127.249 119.651 126.412 119.624C125.582 119.593 124.872 119.746 124.288 120.085C123.711 120.421 123.423 120.787 123.432 121.188C123.447 121.584 123.779 122.157 124.449 122.9" fill="#FED44C"/>
<path d="M149.945 113.167L149.931 121.357C149.931 117.728 147.55 114.085 142.76 111.332C140.393 109.955 137.639 108.936 134.713 108.248C125.935 106.197 115.494 107.215 108.408 111.332C103.732 114.057 101.38 117.628 101.366 121.214L101.394 113.024C101.409 109.453 103.747 105.881 108.437 103.156C115.522 99.0399 125.964 98.0068 134.742 100.058C137.668 100.747 140.407 101.779 142.788 103.142C147.565 105.91 149.96 109.539 149.945 113.167V113.167Z" fill="#F2BC36"/>
<path d="M149.947 113.166L149.924 121.35C149.914 124.93 147.566 128.505 142.874 131.231L142.897 123.047C147.589 120.321 149.937 116.746 149.947 113.166V113.166Z" fill="#F9C73A"/>
<path d="M101.371 121.211L101.394 113.027C101.384 116.652 103.771 120.283 108.55 123.042C118.055 128.53 133.463 128.53 142.897 123.047L142.874 131.231C133.439 136.714 118.032 136.714 108.526 131.226C103.748 128.467 101.361 124.836 101.371 121.211Z" fill="#F9C73A"/>
<path d="M142.785 105.324C152.29 110.812 152.341 119.736 142.897 125.224C133.462 130.707 118.055 130.707 108.549 125.219C99.0531 119.736 99.0025 110.812 108.437 105.329C117.881 99.8407 133.289 99.8408 142.785 105.324Z" fill="#F9C73A"/>
<path d="M157.131 113.186L157.108 121.37C157.095 126.006 154.049 130.635 147.965 134.171C135.72 141.287 115.794 141.282 103.468 134.166C97.2653 130.584 94.1674 125.884 94.1807 121.191L94.2039 113.007C94.1906 117.7 97.2885 122.4 103.491 125.981C115.817 133.098 135.743 133.103 147.989 125.987C154.072 122.451 157.118 117.822 157.131 113.186Z" fill="#F2BC36"/>
<path d="M147.844 100.206C160.17 107.323 160.234 118.87 147.988 125.987C135.743 133.103 115.817 133.098 103.491 125.981C91.1649 118.865 91.0998 107.328 103.345 100.212C115.592 93.0953 135.518 93.0899 147.844 100.206V100.206ZM108.549 123.042C118.055 128.53 133.462 128.53 142.897 123.047C152.341 117.559 152.29 108.634 142.785 103.146C133.288 97.6635 117.881 97.6634 108.437 103.152C99.0024 108.634 99.053 117.559 108.549 123.042Z" fill="#FED44C"/>
<path d="M137.508 107.452L137.503 109.139L136.177 109.909L136.182 108.222L137.508 107.452Z" fill="#F2BC36"/>
<path d="M126.229 111.422L126.234 109.735C126.235 109.343 126.523 108.983 127.091 108.653C127.675 108.314 128.385 108.161 129.215 108.192C130.051 108.219 130.895 108.44 131.748 108.855L131.743 110.542C130.891 110.127 130.047 109.905 129.21 109.879C128.381 109.848 127.67 110.001 127.086 110.34C126.519 110.67 126.231 111.03 126.229 111.422Z" fill="#F2BC36"/>
<path d="M133.347 109.87L133.342 111.557L128.458 114.395L128.463 112.708L133.347 109.87Z" fill="#F2BC36"/>
<path d="M135.583 112.902L135.578 114.589C135.242 113.453 134.492 112.442 133.342 111.557L133.347 109.87C134.497 110.755 135.247 111.766 135.583 112.902V112.902Z" fill="#F2BC36"/>
<path d="M139.676 112.498L139.672 114.185L135.578 114.589L135.583 112.902L139.676 112.498Z" fill="#F2BC36"/>
<path d="M121.545 111.163L121.55 109.476C121.549 109.569 121.557 109.662 121.572 109.756C121.722 110.724 122.552 111.918 124.055 113.326L124.05 115.013C122.547 113.605 121.718 112.411 121.567 111.442C121.552 111.349 121.545 111.256 121.545 111.163Z" fill="#F2BC36"/>
<path d="M126.438 116.433L126.433 118.12C126.433 118.1 126.432 118.08 126.431 118.06C126.402 117.633 126.017 117.023 125.282 116.241L125.287 114.554C126.022 115.336 126.407 115.946 126.436 116.373C126.437 116.393 126.438 116.413 126.438 116.433V116.433Z" fill="#F2BC36"/>
<path d="M125.286 114.554L125.282 116.241L120.602 118.96L120.607 117.273L125.286 114.554Z" fill="#F2BC36"/>
<path d="M116.173 117.906L116.168 119.593C114.019 118.071 112.824 116.286 112.568 114.231L112.573 112.544C112.828 114.6 114.024 116.385 116.173 117.906Z" fill="#F2BC36"/>
<path d="M115.954 119.978L115.949 121.665L114.271 120.696L114.276 119.009L115.954 119.978Z" fill="#F2BC36"/>
<path d="M117.824 118.891L117.819 120.577L115.949 121.664L115.954 119.978L117.824 118.891Z" fill="#F2BC36"/>
<path d="M131.079 116.687L131.074 118.374C131.072 119.277 130.38 120.128 129.002 120.928C127.48 121.813 125.704 122.218 123.676 122.149C121.64 122.076 119.688 121.55 117.819 120.578L117.824 118.891C119.693 119.863 121.645 120.39 123.68 120.462C125.709 120.531 127.485 120.126 129.007 119.241C130.384 118.441 131.077 117.591 131.079 116.687Z" fill="#F2BC36"/>
<path d="M131.059 116.411C131.21 117.418 130.524 118.36 129.007 119.241C127.485 120.126 125.709 120.531 123.681 120.462C121.645 120.39 119.693 119.863 117.824 118.891L115.954 119.978L114.276 119.009L116.173 117.906C114.024 116.385 112.829 114.6 112.573 112.544L116.747 112.33C116.947 113.913 117.698 115.221 119.008 116.259L124.055 113.326C122.552 111.918 121.723 110.724 121.572 109.756C121.415 108.783 122.088 107.864 123.591 106.99C125.088 106.121 126.837 105.709 128.846 105.766C130.861 105.819 132.754 106.311 134.53 107.238L135.83 106.483L137.508 107.452L136.182 108.222C137.96 109.408 139.127 110.835 139.676 112.498L135.583 112.902C135.247 111.766 134.497 110.755 133.347 109.87L128.463 112.708L128.543 112.753C130.072 114.184 130.922 115.404 131.059 116.411V116.411ZM123.324 117.998C124.213 118.048 124.957 117.899 125.567 117.544C126.171 117.193 126.465 116.8 126.436 116.373C126.408 115.946 126.022 115.336 125.287 114.554L120.607 117.273C121.532 117.708 122.435 117.948 123.324 117.998ZM127.252 111.468L131.747 108.855C130.895 108.44 130.051 108.218 129.215 108.192C128.385 108.161 127.675 108.314 127.091 108.653C126.513 108.989 126.225 109.355 126.234 109.756C126.25 110.152 126.582 110.724 127.252 111.468" fill="#FED44C"/>
<path d="M157.815 99.4164L157.8 107.606C157.8 103.978 155.419 100.335 150.629 97.5808C148.262 96.2039 145.508 95.1857 142.582 94.4972C133.804 92.4459 123.363 93.4642 116.277 97.5808C111.601 100.306 109.249 103.878 109.235 107.463L109.264 99.2735C109.278 95.7018 111.616 92.1308 116.306 89.4057C123.391 85.2891 133.833 84.2561 142.611 86.3074C145.537 86.9958 148.277 88.0281 150.657 89.391C155.434 92.1595 157.829 95.7879 157.815 99.4164V99.4164Z" fill="#F2BC36"/>
<path d="M157.817 99.4154L157.793 107.6C157.783 111.18 155.435 114.754 150.743 117.481L150.766 109.296C155.458 106.57 157.806 102.995 157.817 99.4154V99.4154Z" fill="#F9C73A"/>
<path d="M109.24 107.46L109.263 99.2761C109.253 102.901 111.64 106.532 116.419 109.291C125.924 114.779 141.332 114.779 150.766 109.296L150.743 117.48C141.308 122.963 125.901 122.963 116.396 117.475C111.617 114.716 109.23 111.085 109.24 107.46Z" fill="#F9C73A"/>
<path d="M150.654 91.5728C160.159 97.0608 160.21 105.985 150.766 111.474C141.331 116.956 125.924 116.956 116.418 111.468C106.922 105.986 106.872 97.0611 116.306 91.5783C125.75 86.09 141.158 86.0901 150.654 91.5728V91.5728Z" fill="#F9C73A"/>
<path d="M165 99.4355L164.977 107.62C164.964 112.256 161.918 116.885 155.834 120.42C143.589 127.537 123.663 127.531 111.337 120.415C105.134 116.834 102.037 112.133 102.05 107.44L102.073 99.2559C102.06 103.949 105.158 108.649 111.36 112.231C123.686 119.347 143.612 119.352 155.858 112.236C161.941 108.7 164.987 104.071 165 99.4355V99.4355Z" fill="#F2BC36"/>
<path d="M155.713 86.4555C168.039 93.5719 168.104 105.119 155.858 112.236C143.612 119.352 123.686 119.347 111.36 112.23C99.0345 105.114 98.9694 93.5776 111.215 86.4612C123.461 79.3446 143.387 79.3391 155.713 86.4555ZM116.419 109.291C125.924 114.779 141.332 114.779 150.766 109.296C160.21 103.808 160.16 94.8834 150.654 89.3954C141.158 83.9127 125.751 83.9126 116.307 89.4009C106.872 94.8837 106.923 103.808 116.419 109.291" fill="#FED44C"/>
<path d="M145.377 93.7009L145.372 95.3879L144.046 96.1585L144.051 94.4715L145.377 93.7009Z" fill="#F2BC36"/>
<path d="M134.099 97.6712L134.103 95.9843C134.105 95.5919 134.392 95.2323 134.96 94.9024C135.544 94.563 136.254 94.4105 137.084 94.4411C137.921 94.4678 138.765 94.689 139.617 95.1046L139.612 96.7915C138.76 96.3759 137.916 96.1547 137.079 96.128C136.25 96.0974 135.539 96.25 134.955 96.5893C134.388 96.9192 134.1 97.2788 134.099 97.6712V97.6712Z" fill="#F2BC36"/>
<path d="M141.216 96.1191L141.211 97.8061L136.328 100.644L136.332 98.957L141.216 96.1191Z" fill="#F2BC36"/>
<path d="M143.452 99.1514L143.447 100.838C143.111 99.7018 142.361 98.691 141.211 97.8061L141.216 96.1191C142.366 97.0041 143.116 98.0149 143.452 99.1514V99.1514Z" fill="#F2BC36"/>
<path d="M147.545 98.7472L147.541 100.434L143.447 100.838L143.452 99.1515L147.545 98.7472Z" fill="#F2BC36"/>
<path d="M129.414 97.4125L129.419 95.7256C129.419 95.8181 129.426 95.9112 129.441 96.0048C129.591 96.9736 130.421 98.1675 131.924 99.575L131.919 101.262C130.416 99.8544 129.587 98.6605 129.436 97.6917C129.421 97.5981 129.414 97.5051 129.414 97.4125Z" fill="#F2BC36"/>
<path d="M134.307 102.682L134.302 104.369C134.302 104.349 134.302 104.329 134.3 104.309C134.272 103.882 133.886 103.272 133.151 102.49L133.156 100.803C133.891 101.585 134.276 102.195 134.305 102.623C134.306 102.642 134.307 102.662 134.307 102.682Z" fill="#F2BC36"/>
<path d="M133.156 100.803L133.151 102.49L128.471 105.21L128.476 103.523L133.156 100.803Z" fill="#F2BC36"/>
<path d="M124.042 104.156L124.037 105.843C121.888 104.321 120.693 102.536 120.438 100.48L120.442 98.7931C120.698 100.849 121.893 102.634 124.042 104.156Z" fill="#F2BC36"/>
<path d="M123.823 106.227L123.818 107.914L122.14 106.945L122.145 105.258L123.823 106.227Z" fill="#F2BC36"/>
<path d="M125.693 105.14L125.688 106.827L123.818 107.914L123.823 106.227L125.693 105.14Z" fill="#F2BC36"/>
<path d="M138.948 102.936L138.944 104.623C138.941 105.527 138.249 106.377 136.872 107.178C135.349 108.062 133.573 108.467 131.545 108.398C129.509 108.326 127.557 107.799 125.688 106.827L125.693 105.14C127.562 106.112 129.514 106.639 131.549 106.711C133.578 106.78 135.354 106.376 136.876 105.491C138.253 104.69 138.946 103.84 138.948 102.936Z" fill="#F2BC36"/>
<path d="M138.928 102.661C139.079 103.667 138.393 104.61 136.876 105.491C135.354 106.376 133.578 106.78 131.55 106.711C129.514 106.639 127.562 106.112 125.693 105.14L123.823 106.227L122.145 105.258L124.042 104.156C121.893 102.634 120.698 100.849 120.442 98.7931L124.616 98.5795C124.816 100.162 125.567 101.471 126.877 102.508L131.924 99.575C130.421 98.1675 129.592 96.9735 129.441 96.0048C129.284 95.0322 129.957 94.113 131.46 93.2395C132.957 92.3698 134.706 91.9578 136.715 92.0151C138.73 92.0685 140.623 92.5606 142.399 93.4874L143.699 92.7321L145.377 93.7009L144.051 94.4715C145.829 95.6577 146.996 97.0842 147.545 98.7471L143.452 99.1514C143.116 98.0148 142.366 97.0041 141.216 96.1191L136.333 98.957L136.412 99.0028C137.941 100.433 138.791 101.654 138.928 102.661V102.661ZM131.193 104.247C132.082 104.297 132.826 104.148 133.436 103.793C134.04 103.442 134.334 103.05 134.305 102.623C134.277 102.195 133.891 101.585 133.156 100.803L128.476 103.523C129.401 103.957 130.304 104.198 131.193 104.247V104.247ZM135.121 97.7174L139.617 95.1046C138.765 94.689 137.92 94.4677 137.084 94.4411C136.254 94.4105 135.544 94.563 134.96 94.9024C134.382 95.238 134.094 95.6044 134.103 96.0048C134.119 96.4015 134.451 96.9737 135.121 97.7174" fill="#FED44C"/>
<path d="M116.741 145.287L108.624 150.012C106.814 151.066 104.657 151.51 102.253 151.297C100.722 151.165 99.0926 150.753 97.3804 150.045C96.4585 149.666 95.5202 149.206 94.5653 148.645C83.6504 142.357 74.8099 127.03 74.8429 114.518C74.8429 114.518 74.8429 114.518 74.8429 114.502V114.057C74.9087 111.111 75.4684 108.608 76.4232 106.567C76.8513 105.678 77.3451 104.871 77.9214 104.164C78.6951 103.209 79.6005 102.418 80.6212 101.825L88.7374 97.1172C87.7167 97.7096 86.8113 98.4837 86.0376 99.4548C85.4613 100.146 84.9674 100.953 84.5559 101.842C83.5846 103.883 83.0248 106.402 82.9754 109.332C82.9754 109.48 82.959 109.629 82.959 109.794C82.9261 122.322 91.7666 137.632 102.681 143.937C103.636 144.481 104.591 144.941 105.513 145.321C107.209 146.028 108.839 146.44 110.37 146.588C112.773 146.802 114.93 146.341 116.741 145.287V145.287Z" fill="#FED44C"/>
<path d="M116.745 145.295L108.623 150.015C112.174 147.951 114.379 143.569 114.397 137.347L122.519 132.627C122.501 138.849 120.296 143.231 116.745 145.295Z" fill="#F9C73A"/>
<path d="M80.6196 101.832L88.7417 97.1122C92.3404 95.0209 97.3217 95.3113 102.812 98.4811L94.69 103.201C89.1997 100.031 84.2184 99.7409 80.6196 101.832V101.832Z" fill="#F9C73A"/>
<path d="M94.6904 103.201L102.812 98.4812C113.712 104.774 122.555 120.089 122.519 132.627L114.397 137.347C114.433 124.809 105.59 109.494 94.6904 103.201V103.201Z" fill="#F9C73A"/>
<path d="M96.6059 101.735C107.506 108.028 116.348 123.344 116.313 135.881C116.277 148.406 107.377 153.477 96.477 147.184C85.5667 140.885 76.7244 125.57 76.7599 113.045C76.7954 100.508 85.6955 95.4363 96.6059 101.735V101.735Z" fill="#F2BC36"/>
<path d="M94.7092 96.4854C108.857 104.654 120.287 124.464 120.241 140.721C120.195 156.977 108.69 163.533 94.5423 155.365C80.3946 147.197 68.954 127.393 69.0001 111.137C69.0462 94.8796 80.5616 88.3172 94.7092 96.4854ZM94.5613 148.65C105.461 154.943 114.361 149.871 114.397 137.347C114.432 124.809 105.59 109.494 94.6902 103.201C83.7799 96.9021 74.8797 101.974 74.8442 114.511C74.8087 127.036 83.651 142.351 94.5613 148.65" fill="#F9C73A"/>
<path d="M95.7216 137.489L97.1321 136.669L97.1253 139.055L95.7148 139.875L95.7216 137.489Z" fill="#E2AB30"/>
<path d="M88.9038 127.016L90.3143 126.196C91.9261 128.737 93.5908 130.662 95.2957 131.955L93.8852 132.775C92.1803 131.481 90.5156 129.557 88.9038 127.016Z" fill="#FED44C"/>
<path d="M95.7314 133.943L97.1419 133.124C98.0686 133.548 98.7978 133.661 99.3423 133.46L97.9318 134.28C97.3873 134.48 96.6581 134.368 95.7314 133.943V133.943Z" fill="#FED44C"/>
<path d="M99.5397 133.368L98.1292 134.188C98.0679 134.223 98.0021 134.254 97.9316 134.28L99.3421 133.46C99.4126 133.434 99.4784 133.404 99.5397 133.368Z" fill="black"/>
<path d="M95.7484 127.975L97.1589 127.155L97.142 133.124L95.7314 133.944L95.7484 127.975Z" fill="#E2AB30"/>
<path d="M95.7598 123.93L97.1703 123.11L97.2597 123.162L95.8492 123.981L95.7598 123.93Z" fill="#FED44C"/>
<path d="M91.7822 116.303L93.1927 115.483C92.7813 115.722 92.5697 116.176 92.5677 116.857C92.5657 117.591 92.7557 118.289 93.1378 118.944C93.5263 119.602 94.2534 120.433 95.3256 121.449L93.9151 122.269C92.8429 121.253 92.1158 120.422 91.7273 119.763C91.3452 119.109 91.1552 118.411 91.1572 117.677C91.1592 116.996 91.3708 116.542 91.7822 116.303Z" fill="#FED44C"/>
<path d="M95.8491 123.981L97.2596 123.162C99.4684 125.04 101.089 126.784 102.127 128.399L100.717 129.219C99.6784 127.604 98.0579 125.86 95.8491 123.981Z" fill="#FED44C"/>
<path d="M102.138 137.277L100.727 138.097C101.743 137.506 102.259 136.327 102.264 134.545C102.269 132.607 101.749 130.829 100.717 129.219L102.128 128.399C103.16 130.009 103.68 131.787 103.674 133.725C103.669 135.507 103.154 136.687 102.138 137.277Z" fill="#FED44C"/>
<path d="M95.7774 117.705L97.1879 116.885L97.1703 123.11L95.7598 123.93L95.7774 117.705Z" fill="#E2AB30"/>
<path d="M89.1768 112.47L90.5872 111.651C90.6571 111.61 90.7294 111.572 90.8041 111.537C91.9702 110.997 93.4863 111.204 95.3521 112.17L93.9416 112.99C92.0758 112.023 90.5597 111.817 89.3936 112.357C89.3189 112.392 89.2466 112.43 89.1768 112.47Z" fill="#FED44C"/>
<path d="M93.9463 111.331L95.3568 110.511L97.2031 111.577L95.7926 112.397L93.9463 111.331Z" fill="#FED44C"/>
<path d="M95.7924 112.397L97.2029 111.578L97.1981 113.273L95.7876 114.093L95.7924 112.397Z" fill="#E2AB30"/>
<path d="M95.7876 114.093L97.1981 113.273C99.3122 114.67 101.31 116.654 103.19 119.218L101.78 120.037C99.8991 117.474 97.9017 115.49 95.7876 114.093Z" fill="#FED44C"/>
<path d="M101.78 120.037L103.19 119.218L101.31 121.191L99.8994 122.011L101.78 120.037Z" fill="#E2AB30"/>
<path d="M100.717 129.219C101.749 130.829 102.269 132.607 102.263 134.545C102.258 136.476 101.653 137.7 100.461 138.233C99.263 138.762 97.6831 138.511 95.7215 137.489L95.7147 139.875L93.8683 138.809L93.8752 136.386C91.2439 134.558 88.8835 131.99 86.7939 128.68L88.904 127.016C90.5158 129.557 92.1805 131.481 93.8854 132.775L93.9037 126.344C91.7332 124.495 90.1446 122.791 89.1379 121.239C88.1313 119.687 87.6307 117.95 87.6361 116.041C87.6415 114.132 88.2273 112.904 89.3935 112.357C90.5597 111.817 92.0757 112.023 93.9415 112.99L93.9462 111.331L95.7926 112.397L95.7878 114.093C97.9019 115.49 99.8993 117.474 101.78 120.037L99.8992 122.011C98.6308 120.234 97.259 118.803 95.7776 117.705L95.7599 123.93L95.8493 123.981C98.0581 125.86 99.6786 127.604 100.717 129.219ZM97.9318 134.28C98.4699 134.083 98.7401 133.599 98.7423 132.829C98.7445 132.05 98.5354 131.319 98.115 130.621C97.6882 129.919 96.9036 129.039 95.7484 127.975L95.7315 133.943C96.6582 134.368 97.3874 134.48 97.9318 134.28ZM93.9152 122.269L93.9315 116.536C93.0687 116.126 92.3907 116.029 91.8974 116.244C91.4104 116.463 91.1595 116.935 91.1574 117.677C91.1553 118.411 91.3453 119.109 91.7274 119.763C92.1159 120.422 92.843 121.253 93.9152 122.269" fill="#F9C73A"/>
<path d="M128.371 136.001C128.338 144.085 125.49 149.764 120.897 152.431L112.764 157.156C117.374 154.472 120.222 148.793 120.238 140.726C120.287 124.461 108.862 104.656 94.7043 96.4903C87.5924 92.3746 81.1389 91.996 76.48 94.6961L84.5961 89.9872C89.255 87.271 95.7085 87.6496 102.837 91.7653C116.978 99.9308 128.404 119.736 128.371 136.001V136.001Z" fill="#FED44C"/>
<path d="M110.518 147.675L110.982 149.24L110.022 147.919L108.304 151.085L108.866 147.527L107.301 147.992L108.621 147.031L105.456 145.314L109.013 145.875L108.549 144.31L109.509 145.63L111.227 142.465L110.665 146.022L112.23 145.558L110.91 146.519L114.075 148.236L110.518 147.675Z" fill="white"/>
<path d="M150.416 96.1047L151.276 99.0062L149.497 96.5586L146.312 102.426L147.354 95.832L144.452 96.6922L146.9 94.9123L141.033 91.7283L147.627 92.7696L146.766 89.8684L148.546 92.3157L151.73 86.4486L150.689 93.0423L153.59 92.1824L151.143 93.962L157.01 97.1463L150.416 96.1047Z" fill="white"/>
<defs>
<filter id="filter0_d_513_7880" x="71.2031" y="197.797" width="94.4766" height="26.5508" filterUnits="userSpaceOnUse" color-interpolation-filters="sRGB">
<feFlood flood-opacity="0" result="BackgroundImageFix"/>
<feColorMatrix in="SourceAlpha" type="matrix" values="0 0 0 0 0 0 0 0 0 0 0 0 0 0 0 0 0 0 127 0" result="hardAlpha"/>
<feOffset dy="3"/>
<feGaussianBlur stdDeviation="1"/>
<feComposite in2="hardAlpha" operator="out"/>
<feColorMatrix type="matrix" values="0 0 0 0 0 0 0 0 0 0 0 0 0 0 0 0 0 0 0.25 0"/>
<feBlend mode="normal" in2="BackgroundImageFix" result="effect1_dropShadow_513_7880"/>
<feBlend mode="normal" in="SourceGraphic" in2="effect1_dropShadow_513_7880" result="shape"/>
</filter>
<linearGradient id="paint0_linear_513_7880" x1="118.5" y1="192" x2="118.5" y2="221" gradientUnits="userSpaceOnUse">
<stop stop-color="#FFEA32"/>
<stop offset="1" stop-color="#D9A900"/>
</linearGradient>
<radialGradient id="paint1_radial_513_7880" cx="0" cy="0" r="1" gradientUnits="userSpaceOnUse" gradientTransform="translate(117.433 117.87) rotate(30.2848) scale(6.41078 86.7786)">
<stop stop-color="#FFF4E1"/>
<stop offset="0.0745603" stop-color="#FCE4B8" stop-opacity="0.9254"/>
<stop offset="0.1539" stop-color="#F9D794" stop-opacity="0.8461"/>
<stop offset="0.2407" stop-color="#F7CB75" stop-opacity="0.7593"/>
<stop offset="0.3352" stop-color="#F5C15C" stop-opacity="0.6648"/>
<stop offset="0.4402" stop-color="#F4BA49" stop-opacity="0.5598"/>
<stop offset="0.5618" stop-color="#F3B53B" stop-opacity="0.4382"/>
<stop offset="0.7148" stop-color="#F2B233" stop-opacity="0.2852"/>
<stop offset="1" stop-color="#F2B131" stop-opacity="0"/>
</radialGradient>
<radialGradient id="paint2_radial_513_7880" cx="0" cy="0" r="1" gradientUnits="userSpaceOnUse" gradientTransform="translate(117.433 117.869) rotate(120.285) scale(6.4106 85.2588)">
<stop stop-color="#FFF4E1"/>
<stop offset="0.0745603" stop-color="#FCE4B8" stop-opacity="0.9254"/>
<stop offset="0.1539" stop-color="#F9D794" stop-opacity="0.8461"/>
<stop offset="0.2407" stop-color="#F7CB75" stop-opacity="0.7593"/>
<stop offset="0.3352" stop-color="#F5C15C" stop-opacity="0.6648"/>
<stop offset="0.4402" stop-color="#F4BA49" stop-opacity="0.5598"/>
<stop offset="0.5618" stop-color="#F3B53B" stop-opacity="0.4382"/>
<stop offset="0.7148" stop-color="#F2B233" stop-opacity="0.2852"/>
<stop offset="1" stop-color="#F2B131" stop-opacity="0"/>
</radialGradient>
<radialGradient id="paint3_radial_513_7880" cx="0" cy="0" r="1" gradientUnits="userSpaceOnUse" gradientTransform="translate(117.433 117.869) rotate(30.2848) scale(56.8264 56.8265)">
<stop stop-color="#FFF4E1"/>
<stop offset="0.0745603" stop-color="#FCE4B8" stop-opacity="0.9254"/>
<stop offset="0.1539" stop-color="#F9D794" stop-opacity="0.8461"/>
<stop offset="0.2407" stop-color="#F7CB75" stop-opacity="0.7593"/>
<stop offset="0.3352" stop-color="#F5C15C" stop-opacity="0.6648"/>
<stop offset="0.4402" stop-color="#F4BA49" stop-opacity="0.5598"/>
<stop offset="0.5618" stop-color="#F3B53B" stop-opacity="0.4382"/>
<stop offset="0.7148" stop-color="#F2B233" stop-opacity="0.2852"/>
<stop offset="1" stop-color="#F2B131" stop-opacity="0"/>
</radialGradient>
</defs>
</svg>
