<svg width="32" height="32" viewBox="0 0 32 32" fill="none" xmlns="http://www.w3.org/2000/svg">
<g clip-path="url(#clip0_137_3965)">
<path d="M1.88135 32H29.7808V6.22123e-07H1.88135V32Z" fill="black" stroke="black" stroke-width="0.0548885" stroke-miterlimit="10"/>
<path d="M4.31836 23.9768H27.7023V1.62839H4.31836V23.9768Z" fill="white" stroke="black" stroke-width="0.0548885" stroke-miterlimit="10"/>
<path d="M5.22778 2.46997H15.7102C15.7102 2.46997 15.1256 2.90222 14.998 3.4511C14.8703 3.99999 14.8972 4.39107 14.9913 4.65179C14.9913 4.65179 14.9913 4.78215 14.9173 4.8782C14.8434 4.97426 14.8501 4.67923 14.5074 4.69982C14.1648 4.7204 13.6877 4.61062 13.0493 5.78386C13.0493 5.78386 12.841 6.32589 12.8074 6.79244C12.7738 7.25899 12.7335 7.89707 12.794 8.06174C12.8544 8.2264 12.1422 8.18524 12.1422 8.18524C12.1422 8.18524 11.9607 8.23326 11.954 8.30874C11.9473 8.38421 11.954 8.78215 11.9607 9.00856C11.9675 9.23498 11.9137 9.36534 11.8936 9.57803C11.8734 9.79073 11.739 9.98283 11.7592 10.223C11.7793 10.4631 12.1489 10.4768 12.3639 10.4974C12.5789 10.518 12.5588 10.566 12.4378 10.6003C12.3169 10.6346 11.9607 10.6415 11.9742 11.0806C11.9876 11.5197 12.122 12.5626 12.1556 12.8439C12.1892 13.1252 11.9473 12.8713 11.9742 12.9537C12.0011 13.036 11.8801 12.9056 11.8062 13.2213C11.7323 13.5369 11.8264 13.482 11.86 13.5231C11.8936 13.5643 11.9339 13.5643 11.9339 13.5643L11.8331 13.7084L11.7995 13.8731L11.8532 13.9897L11.907 14.0377C11.907 14.0377 11.7726 14.1887 11.9137 14.3533C12.0548 14.518 11.9876 14.4425 11.9742 14.6003C11.9607 14.7581 11.6785 15.9314 11.7524 16.446C11.8264 16.9605 11.5777 17.1183 11.4702 17.3448C11.3627 17.5712 10.7378 18.566 10.7647 18.7993C10.7916 19.0326 10.7042 19.2796 10.637 19.4099C10.5698 19.5403 10.2741 19.849 10.2876 20.1715C10.301 20.494 10.3212 20.542 10.469 20.6792C10.469 20.6792 10.3413 21.1252 10.2943 21.3105C10.2473 21.4957 10.0658 22.223 10.0322 22.3533C9.99865 22.4837 9.93817 22.7307 9.95833 22.8611L9.93817 22.9159H5.22778" fill="#1D2C49"/>
<path d="M5.22778 2.47005H15.7102C15.7102 2.47005 15.1256 2.90229 14.998 3.45118C14.8703 4.00006 14.8972 4.39114 14.9913 4.65187C14.9913 4.65187 14.9913 4.78223 14.9173 4.87828C14.8434 4.97434 14.8501 4.67931 14.5074 4.69989C14.1648 4.72048 13.6877 4.6107 13.0493 5.78394C13.0493 5.78394 12.841 6.32596 12.8074 6.79252C12.7738 7.25907 12.7335 7.89715 12.794 8.06181C12.8544 8.22648 12.1422 8.18531 12.1422 8.18531C12.1422 8.18531 11.9607 8.23334 11.954 8.30881C11.9473 8.38428 11.954 8.78223 11.9607 9.00864C11.9675 9.23506 11.9137 9.36542 11.8936 9.57811C11.8734 9.7908 11.739 9.98291 11.7592 10.223C11.7793 10.4632 12.1489 10.4769 12.3639 10.4975C12.5789 10.5181 12.5588 10.5661 12.4378 10.6004C12.3169 10.6347 11.9607 10.6416 11.9742 11.0807C11.9876 11.5198 12.122 12.5627 12.1556 12.844C12.1892 13.1253 11.9473 12.8714 11.9742 12.9538C12.0011 13.0361 11.8801 12.9057 11.8062 13.2213C11.7323 13.5369 11.8264 13.4821 11.86 13.5232C11.8936 13.5644 11.9339 13.5644 11.9339 13.5644L11.8331 13.7085L11.7995 13.8731L11.8532 13.9898L11.907 14.0378C11.907 14.0378 11.7726 14.1887 11.9137 14.3534C12.0548 14.5181 11.9876 14.4426 11.9742 14.6004C11.9607 14.7582 11.6785 15.9315 11.7524 16.446C11.8264 16.9606 11.5777 17.1184 11.4702 17.3448C11.3627 17.5712 10.7378 18.5661 10.7647 18.7994C10.7916 19.0327 10.7042 19.2797 10.637 19.41C10.5698 19.5404 10.2741 19.8491 10.2876 20.1716C10.301 20.4941 10.3212 20.5421 10.469 20.6793C10.469 20.6793 10.3413 21.1253 10.2943 21.3105C10.2473 21.4958 10.0658 22.223 10.0322 22.3534C9.99865 22.4838 9.93817 22.7308 9.95833 22.8611L9.93817 22.916H5.22778V2.47005Z" stroke="#1D2C49" stroke-width="0.0548885" stroke-miterlimit="10"/>
<path d="M11.5643 22.916H17.1751C17.1751 22.916 17.2221 22.2367 17.3767 21.928C17.5312 21.6192 17.4976 21.2419 17.4842 20.9949C17.4707 20.7479 17.5043 20.3156 17.3095 20.2059L17.2759 19.904C17.2759 19.904 17.081 19.4511 17.1348 19.3345C17.1213 19.2041 17.081 18.0995 17.081 18.0995C17.081 18.0995 17.1415 17.8937 17.2557 17.8114C17.2893 17.7084 17.3162 17.1115 17.1952 16.988C17.0877 16.8645 17.0071 16.8714 16.7652 16.8439C16.5233 16.8165 16.6577 17.0978 15.8245 15.7805C15.6833 15.5335 15.5355 15.3002 15.4683 15.211C15.4011 15.1218 15.3003 15.1218 15.1458 15.1081C14.9912 15.0944 14.9711 15.0875 14.8367 14.8336L14.7023 14.5798C14.7023 14.5798 14.6679 14.5112 14.5305 14.9434C14.3932 15.3757 14.2521 14.9434 13.9833 16.0206C13.8153 16.3842 13.8019 16.4254 13.775 16.9126C13.7078 17.1595 13.5667 17.2213 13.4189 17.3174C13.271 17.4134 13.2509 17.681 13.1971 17.7496C13.1434 17.8182 12.9283 17.8182 12.8141 18.2299C12.6999 18.6415 12.6797 18.4014 12.794 18.7856C12.794 18.7856 12.626 19.4443 12.5252 19.5952C12.4244 19.7462 12.2631 20.1647 12.2161 20.3568C12.169 20.5489 11.9607 20.8234 11.8062 20.8508C11.6516 20.8782 11.4769 21.4546 11.4568 21.6124C11.4366 21.7702 11.3761 22.6141 11.4568 22.7376C11.5038 22.8611 11.5643 22.916 11.5643 22.916Z" fill="#1D2C49"/>
<path d="M11.5643 22.916H17.1751C17.1751 22.916 17.2221 22.2368 17.3767 21.928C17.5312 21.6193 17.4976 21.2419 17.4842 20.9949C17.4707 20.7479 17.5043 20.3157 17.3095 20.2059L17.2759 19.904C17.2759 19.904 17.081 19.4512 17.1348 19.3345C17.1213 19.2042 17.081 18.0995 17.081 18.0995C17.081 18.0995 17.1415 17.8937 17.2557 17.8114C17.2893 17.7085 17.3162 17.1116 17.1952 16.9881C17.0877 16.8646 17.0071 16.8714 16.7652 16.844C16.5233 16.8165 16.6577 17.0978 15.8245 15.7805C15.6833 15.5335 15.5355 15.3002 15.4683 15.211C15.4011 15.1218 15.3003 15.1218 15.1458 15.1081C14.9912 15.0944 14.9711 15.0875 14.8367 14.8337L14.7023 14.5798C14.7023 14.5798 14.6679 14.5112 14.5305 14.9435C14.3932 15.3757 14.2521 14.9435 13.9833 16.0206C13.8153 16.3843 13.8019 16.4254 13.775 16.9126C13.7078 17.1596 13.5667 17.2213 13.4189 17.3174C13.271 17.4134 13.2509 17.681 13.1971 17.7496C13.1434 17.8182 12.9283 17.8182 12.8141 18.2299C12.6999 18.6416 12.6797 18.4014 12.794 18.7857C12.794 18.7857 12.626 19.4443 12.5252 19.5953C12.4244 19.7462 12.2631 20.1647 12.2161 20.3568C12.169 20.5489 11.9607 20.8234 11.8062 20.8508C11.6516 20.8783 11.4769 21.4546 11.4568 21.6124C11.4366 21.7702 11.3761 22.6141 11.4568 22.7376C11.5038 22.8611 11.5643 22.916 11.5643 22.916Z" stroke="#1D2C49" stroke-width="0.0548885" stroke-miterlimit="10"/>
<path d="M17.2019 2.46997H26.8153V22.9159H20.4643C20.4643 22.9159 20.4105 22.8748 20.3635 22.7444C20.3164 22.6141 19.7554 22.3876 19.5874 22.343C19.4194 22.2984 19.0868 21.7393 18.9725 21.6192C18.8986 21.5094 18.8919 21.4237 18.8919 21.4237L18.8281 20.3122C18.8281 20.3122 18.818 20.2298 18.8684 20.1715C18.9188 20.1132 19.0095 19.9657 18.9994 19.8456C18.9893 19.7255 18.9457 19.2384 18.9188 19.1767C18.8919 19.1149 18.902 19.012 18.8986 18.9571C18.8953 18.9022 18.9625 18.741 18.9793 18.6827C18.9961 18.6243 19.1506 17.4099 19.1372 17.331C19.1237 17.2521 19.1304 16.6312 19.0297 16.566C18.9289 16.5008 19.0095 16.2127 18.9759 16.1647C18.9423 16.1166 18.8213 16.1818 18.7777 16.0206C18.734 15.8593 18.2737 14.7547 18.2737 14.7547L17.968 14.1098C17.968 14.1098 17.1415 12.8988 17.044 12.8062C16.9466 12.7135 16.9231 12.1338 17.0104 11.9863C17.0978 11.8388 17.1415 12.0103 17.1515 12.0103C17.1616 12.0103 17.3867 12.1578 17.4842 12.0549C17.5816 11.952 17.8369 11.5472 17.8403 11.3928C17.8437 11.2384 17.9142 9.70839 17.8672 9.63635C17.8504 9.56431 17.8101 9.30702 17.5413 9.21097C17.2725 9.11491 17.548 9.01199 17.5413 8.86791C17.5346 8.72383 17.4942 8.62091 17.5917 8.68952C17.6891 8.75814 18.7911 9.38249 18.9356 9.40308C19.08 9.42366 19.1069 9.42709 19.2077 9.42709C19.3085 9.42709 19.4261 9.55402 19.4698 9.53687C19.5168 9.53687 19.6848 9.54373 20.0477 9.23498C20.4105 8.92623 20.471 8.96054 20.5583 8.64493C20.6457 8.32932 20.6188 7.87992 20.8103 7.83189C21.0018 7.78386 21.1665 7.95882 20.9682 7.31388C20.8742 6.69296 20.8977 6.66551 20.985 6.65865C21.0623 6.61748 21.0388 6.62777 21.2135 6.4288C21.3882 6.22983 21.3916 6.21954 21.4016 6.19896C21.4117 6.17838 21.4117 6.10976 21.4117 6.10976C21.4117 6.10976 21.4655 6.07546 21.4823 6.06174C21.4991 6.04802 21.5831 6.02057 21.5999 6.02057C21.6167 6.02057 21.573 5.97254 21.6536 5.96911C21.956 5.96911 23.4645 5.9794 23.4645 5.9794V5.80445C23.4645 5.80445 23.4679 5.74613 23.5049 5.74956C23.5418 5.75299 23.5721 5.75642 23.5855 5.77357C23.5989 5.79073 23.9618 5.78386 23.9618 5.78386C23.9618 5.78386 24.0256 5.72555 24.1399 5.72555C24.2541 5.72555 25.262 5.72898 25.262 5.72898C25.262 5.72898 25.2855 5.82503 25.3359 5.82503C25.3863 5.82503 25.4703 5.83875 25.467 5.78386C25.6349 5.78386 26.0717 5.78043 26.0717 5.78043C26.0717 5.78043 26.0952 5.78043 26.0919 5.63292C26.0952 5.50599 26.0986 5.52657 25.6719 5.52657C25.5174 5.52657 25.4871 5.52314 25.4871 5.52314C25.4871 5.52314 25.5106 5.46826 25.4132 5.46826C25.3158 5.46826 25.2687 5.51971 25.2687 5.55059C25.2687 5.58146 25.2251 5.57803 25.2251 5.57803L24.0827 5.56774C24.0827 5.56774 24.0256 5.56088 24.0458 5.38935C24.0659 5.21783 23.9987 5.14922 23.945 5.18695C23.8912 5.22469 23.8509 5.24184 23.8442 5.25213C23.8375 5.26242 23.7837 5.19724 23.777 5.13892C23.7703 5.08061 23.7669 4.52486 23.7669 4.51457C23.7669 4.50428 23.7367 4.42194 23.6997 4.44596C23.6628 4.46997 23.5989 4.43567 23.5889 4.47683C23.5788 4.518 23.5855 5.27958 23.5855 5.27958C23.5855 5.27958 23.525 5.3276 23.4914 5.27272C23.4578 5.21783 23.4242 5.2487 23.4309 5.18352C23.4377 5.11834 23.3906 5.07031 23.3906 5.07031H19.0498C19.0498 5.07031 19.0364 4.85762 19.0028 4.87134C18.9692 4.88506 18.7407 4.89193 18.7407 4.89193L18.734 4.54201C18.734 4.54201 18.7138 4.4391 18.6399 4.50085C18.5727 4.50771 18.5794 4.80959 18.5727 4.8439C18.566 4.8782 18.5122 4.8782 18.5122 4.8782V5.0017L18.2703 5.02915C18.2703 5.02915 17.9411 5.0909 17.8941 5.1252C17.847 5.15951 17.6723 5.17323 17.6723 5.17323L17.5917 5.18695C17.5917 5.18695 17.5379 5.03601 17.5379 5.01543C17.5379 4.99484 17.5312 4.85076 17.5312 4.85076C17.5312 4.85076 17.5446 4.90565 17.5178 4.80959C17.4909 4.71354 17.5043 4.63121 17.5043 4.63121C17.5043 4.63121 17.9276 4.4734 18.0016 4.33618C18.0755 4.19896 18.0755 3.67752 18.0083 3.46482C17.9411 3.25213 17.9008 3.19038 17.9008 3.13549C17.9008 3.08061 17.8806 2.90222 17.8806 2.90222C17.8806 2.90222 17.6186 2.765 17.4909 2.72383C17.3632 2.68266 17.1751 2.53858 17.1751 2.53858" fill="#FFA500"/>
<path d="M17.2019 2.47005H26.8153V22.916H20.4643C20.4643 22.916 20.4105 22.8748 20.3635 22.7445C20.3164 22.6141 19.7554 22.3877 19.5874 22.3431C19.4194 22.2985 19.0868 21.7393 18.9725 21.6193C18.8986 21.5095 18.8919 21.4237 18.8919 21.4237L18.8281 20.3122C18.8281 20.3122 18.818 20.2299 18.8684 20.1716C18.9188 20.1133 19.0095 19.9658 18.9994 19.8457C18.9893 19.7256 18.9457 19.2385 18.9188 19.1767C18.8919 19.115 18.902 19.0121 18.8986 18.9572C18.8953 18.9023 18.9625 18.7411 18.9793 18.6827C18.9961 18.6244 19.1506 17.41 19.1372 17.3311C19.1237 17.2522 19.1304 16.6313 19.0297 16.5661C18.9289 16.5009 19.0095 16.2128 18.9759 16.1647C18.9423 16.1167 18.8213 16.1819 18.7777 16.0206C18.734 15.8594 18.2737 14.7548 18.2737 14.7548L17.968 14.1098C17.968 14.1098 17.1415 12.8989 17.044 12.8062C16.9466 12.7136 16.9231 12.1339 17.0104 11.9863C17.0978 11.8388 17.1415 12.0104 17.1515 12.0104C17.1616 12.0104 17.3867 12.1579 17.4842 12.055C17.5816 11.952 17.8369 11.5472 17.8403 11.3929C17.8437 11.2385 17.9142 9.70847 17.8672 9.63643C17.8504 9.56439 17.8101 9.3071 17.5413 9.21104C17.2725 9.11499 17.548 9.01207 17.5413 8.86799C17.5346 8.72391 17.4942 8.62099 17.5917 8.6896C17.6891 8.75821 18.7911 9.38257 18.9356 9.40315C19.08 9.42373 19.1069 9.42717 19.2077 9.42717C19.3085 9.42717 19.4261 9.55409 19.4698 9.53694C19.5168 9.53694 19.6848 9.5438 20.0477 9.23506C20.4105 8.92631 20.471 8.96061 20.5583 8.645C20.6457 8.3294 20.6188 7.88 20.8103 7.83197C21.0018 7.78394 21.1665 7.9589 20.9682 7.31396C20.8742 6.69303 20.8977 6.66559 20.985 6.65873C21.0623 6.61756 21.0388 6.62785 21.2135 6.42888C21.3882 6.22991 21.3916 6.21962 21.4016 6.19903C21.4117 6.17845 21.4117 6.10984 21.4117 6.10984C21.4117 6.10984 21.4655 6.07554 21.4823 6.06181C21.4991 6.04809 21.5831 6.02065 21.5999 6.02065C21.6167 6.02065 21.573 5.97262 21.6536 5.96919C21.956 5.96919 23.4645 5.97948 23.4645 5.97948V5.80452C23.4645 5.80452 23.4679 5.7462 23.5049 5.74964C23.5418 5.75307 23.5721 5.7565 23.5855 5.77365C23.5989 5.7908 23.9618 5.78394 23.9618 5.78394C23.9618 5.78394 24.0256 5.72562 24.1399 5.72562C24.2541 5.72562 25.262 5.72905 25.262 5.72905C25.262 5.72905 25.2855 5.82511 25.3359 5.82511C25.3863 5.82511 25.4703 5.83883 25.467 5.78394C25.6349 5.78394 26.0717 5.78051 26.0717 5.78051C26.0717 5.78051 26.0952 5.78051 26.0919 5.633C26.0952 5.50607 26.0986 5.52665 25.6719 5.52665C25.5174 5.52665 25.4871 5.52322 25.4871 5.52322C25.4871 5.52322 25.5106 5.46833 25.4132 5.46833C25.3158 5.46833 25.2687 5.51979 25.2687 5.55066C25.2687 5.58154 25.2251 5.57811 25.2251 5.57811L24.0827 5.56782C24.0827 5.56782 24.0256 5.56096 24.0458 5.38943C24.0659 5.2179 23.9987 5.14929 23.945 5.18703C23.8912 5.22476 23.8509 5.24192 23.8442 5.25221C23.8375 5.2625 23.7837 5.19732 23.777 5.139C23.7703 5.08068 23.7669 4.52494 23.7669 4.51464C23.7669 4.50435 23.7367 4.42202 23.6997 4.44603C23.6628 4.47005 23.5989 4.43574 23.5889 4.47691C23.5788 4.51807 23.5855 5.27965 23.5855 5.27965C23.5855 5.27965 23.525 5.32768 23.4914 5.27279C23.4578 5.2179 23.4242 5.24878 23.4309 5.1836C23.4377 5.11842 23.3906 5.07039 23.3906 5.07039H19.0498C19.0498 5.07039 19.0364 4.8577 19.0028 4.87142C18.9692 4.88514 18.7407 4.892 18.7407 4.892L18.734 4.54209C18.734 4.54209 18.7138 4.43917 18.6399 4.50092C18.5727 4.50778 18.5794 4.80967 18.5727 4.84397C18.566 4.87828 18.5122 4.87828 18.5122 4.87828V5.00178L18.2703 5.02922C18.2703 5.02922 17.9411 5.09097 17.8941 5.12528C17.847 5.15958 17.6723 5.17331 17.6723 5.17331L17.5917 5.18703C17.5917 5.18703 17.5379 5.03608 17.5379 5.0155C17.5379 4.99492 17.5312 4.85084 17.5312 4.85084C17.5312 4.85084 17.5446 4.90572 17.5178 4.80967C17.4909 4.71361 17.5043 4.63128 17.5043 4.63128C17.5043 4.63128 17.9276 4.47348 18.0016 4.33626C18.0755 4.19903 18.0755 3.67759 18.0083 3.4649C17.9411 3.25221 17.9008 3.19046 17.9008 3.13557C17.9008 3.08068 17.8806 2.90229 17.8806 2.90229C17.8806 2.90229 17.6186 2.76507 17.4909 2.72391C17.3632 2.68274 17.1751 2.53866 17.1751 2.53866L17.2019 2.47005Z" stroke="#FFA500" stroke-width="0.0548885" stroke-miterlimit="10"/>
<path d="M9.11154 28.9949H5.52332V26.4974H9.11154C9.11154 26.4974 9.08466 25.777 8.40599 25.5643C8.26488 25.53 7.98938 25.53 7.81467 25.53H5.25453C5.25453 25.53 4.36756 25.6055 4.35412 26.5249C4.34068 27.4443 4.35412 28.9949 4.35412 28.9949C4.35412 28.9949 4.25332 30.024 5.77194 30.024H8.11033C8.11033 30.024 8.79572 29.9966 9.07794 29.3173C9.1317 29.1321 9.11154 28.9949 9.11154 28.9949Z" fill="white"/>
<path d="M9.11154 28.9949H5.52331V26.4975H9.11154C9.11154 26.4975 9.08466 25.777 8.40599 25.5644C8.26488 25.5301 7.98938 25.5301 7.81467 25.5301H5.25453C5.25453 25.5301 4.36756 25.6055 4.35412 26.5249C4.34068 27.4443 4.35412 28.9949 4.35412 28.9949C4.35412 28.9949 4.25332 30.024 5.77194 30.024H8.11033C8.11033 30.024 8.79572 29.9966 9.07794 29.3174C9.1317 29.1321 9.11154 28.9949 9.11154 28.9949Z" stroke="black" stroke-width="0.0548885" stroke-miterlimit="10"/>
<path d="M10.9124 30.024H13.86C13.86 30.024 14.8545 29.9509 14.8635 29.0086C14.8971 27.8216 14.8568 27.2247 13.3493 27.2796C11.6046 27.2796 11.2978 27.2796 11.2978 27.2796H11.0468V26.4655H14.7919C14.7919 26.4655 14.7382 25.5277 13.7615 25.5301C12.7849 25.5324 10.9124 25.5301 10.9124 25.5301C10.9124 25.5301 9.95386 25.5599 9.95386 26.4655V27.3712C9.95386 27.3712 9.85517 28.2586 11.2797 28.2676C12.7042 28.2768 13.7974 28.2586 13.7974 28.2586V29.0453L9.95239 29.027C9.95239 29.027 10.0255 29.6124 10.4018 29.8229C10.5452 29.9143 10.8318 30.024 10.8318 30.024" fill="white"/>
<path d="M10.9124 30.024H13.86C13.86 30.024 14.8545 29.9509 14.8635 29.0086C14.8971 27.8216 14.8568 27.2247 13.3493 27.2796C11.6046 27.2796 11.2978 27.2796 11.2978 27.2796H11.0468V26.4655H14.7919C14.7919 26.4655 14.7382 25.5277 13.7615 25.5301C12.7849 25.5324 10.9124 25.5301 10.9124 25.5301C10.9124 25.5301 9.95386 25.5599 9.95386 26.4655V27.3712C9.95386 27.3712 9.85517 28.2586 11.2797 28.2676C12.7042 28.2768 13.7974 28.2586 13.7974 28.2586V29.0453L9.95239 29.027C9.95239 29.027 10.0255 29.6124 10.4018 29.8229C10.5452 29.9143 10.8318 30.024 10.8318 30.024" stroke="black" stroke-width="0.0548885" stroke-miterlimit="10"/>
<path d="M15.6362 27.3413H16.3418V26.6003H15.6362V27.3413Z" fill="white" stroke="black" stroke-width="0.0548885" stroke-miterlimit="10"/>
<path d="M15.6362 28.9193H16.3418V28.1372H15.6362V28.9193Z" fill="white" stroke="black" stroke-width="0.0548885" stroke-miterlimit="10"/>
<path d="M21.9862 26.4288H18.015V29.1321H21.0387L21.032 28.1784L19.547 28.1715C19.547 28.1715 19.0699 28.0892 18.8818 27.7324C18.7541 27.4031 18.66 27.41 18.9355 27.41C19.211 27.41 21.9862 27.4305 21.9862 27.4305V29.0841C21.9862 29.0841 22.0063 30.0172 20.9984 30.024C19.9905 30.0309 18.1829 30.024 18.1829 30.024L17.8738 30.027C17.8738 30.027 17.2288 29.9142 17.0742 29.2762V26.4288C17.0742 26.4288 17.128 25.5437 18.0015 25.53C18.8751 25.5163 21.1328 25.53 21.1328 25.53C21.1328 25.53 21.5629 25.6192 21.751 25.8525C21.8854 26.0995 21.9864 26.223 21.9862 26.2985C21.9862 26.3739 21.9862 26.4288 21.9862 26.4288Z" fill="white"/>
<path d="M21.9862 26.4289H18.015V29.1321H21.0387L21.032 28.1784L19.547 28.1716C19.547 28.1716 19.0699 28.0892 18.8818 27.7325C18.7541 27.4031 18.66 27.41 18.9355 27.41C19.211 27.41 21.9862 27.4306 21.9862 27.4306V29.0841C21.9862 29.0841 22.0063 30.0172 20.9984 30.0241C19.9905 30.0309 18.1829 30.0241 18.1829 30.0241L17.8738 30.0271C17.8738 30.0271 17.2288 29.9143 17.0742 29.2762V26.4289C17.0742 26.4289 17.128 25.5438 18.0015 25.5301C18.8751 25.5163 21.1328 25.5301 21.1328 25.5301C21.1328 25.5301 21.5629 25.6192 21.751 25.8525C21.8854 26.0995 21.9864 26.223 21.9862 26.2985C21.9862 26.374 21.9862 26.4289 21.9862 26.4289Z" stroke="black" stroke-width="0.0548885" stroke-miterlimit="10"/>
<path d="M23.9394 25.5241H26.5466C26.5466 25.5241 27.6037 25.4683 27.6127 26.5569C27.6217 27.6457 27.6127 28.8165 27.6127 28.8165C27.6127 28.8165 27.7649 30.0303 26.2957 30.0271C24.8264 30.0241 24.1544 30.0271 24.1544 30.0271C24.1544 30.0271 22.8374 30.1613 22.8462 28.9171C22.8553 27.6731 22.8462 26.4746 22.8462 26.4746C22.8462 26.4746 22.9269 26.0082 23.124 25.8343C23.3212 25.6604 23.4825 25.5781 23.5631 25.5689C23.6631 25.5335 23.7422 25.5234 23.7422 25.5234" fill="white"/>
<path d="M23.9394 25.524H26.5466C26.5466 25.524 27.6037 25.4683 27.6127 26.5568C27.6217 27.6456 27.6127 28.8165 27.6127 28.8165C27.6127 28.8165 27.7649 30.0302 26.2957 30.027C24.8264 30.024 24.1544 30.027 24.1544 30.027C24.1544 30.027 22.8374 30.1612 22.8462 28.917C22.8553 27.673 22.8462 26.4745 22.8462 26.4745C22.8462 26.4745 22.9269 26.0082 23.124 25.8343C23.3212 25.6604 23.4825 25.5781 23.5631 25.5688C23.6631 25.5335 23.7422 25.5234 23.7422 25.5234L23.9394 25.524Z" stroke="black" stroke-width="0.0548885" stroke-miterlimit="10"/>
<path d="M23.814 29.155H26.699V26.3557H23.814V29.155Z" fill="black" stroke="black" stroke-width="0.0548885" stroke-miterlimit="10"/>
</g>
<defs>
<clipPath id="clip0_137_3965">
<rect width="32" height="32" fill="white"/>
</clipPath>
</defs>
</svg>
