<svg width="24" height="24" viewBox="0 0 24 24" fill="none" xmlns="http://www.w3.org/2000/svg">
<path d="M5.33512 20.9871L7.56751 20.7387C8.04213 20.6855 8.48464 20.4728 8.82262 20.1354L18.399 10.5618L20.3838 8.57702C20.7783 8.18233 21 7.64709 21 7.08899C21 6.5309 20.7783 5.99566 20.3838 5.60097L18.399 3.61623C18.0043 3.22166 17.4691 3 16.911 3C16.3529 3 15.8177 3.22166 15.423 3.61623L13.4382 5.60097L3.86183 15.1746C3.52425 15.5127 3.31152 15.9555 3.25848 16.4304L3.01293 18.6649C2.9802 18.9588 3.00979 19.2564 3.09978 19.5382C3.18977 19.8199 3.33813 20.0795 3.53519 20.3001C3.73226 20.5207 3.9736 20.6972 4.24348 20.8182C4.51336 20.9393 4.80572 21.0021 5.1015 21.0025C5.17959 21.0015 5.25757 20.9963 5.33512 20.9871ZM16.4129 4.60825C16.5445 4.47672 16.7229 4.40284 16.9089 4.40284C17.0949 4.40284 17.2733 4.47672 17.4049 4.60825L19.3896 6.59299C19.5212 6.72455 19.5951 6.90296 19.5951 7.08899C19.5951 7.27503 19.5212 7.45344 19.3896 7.585L17.9009 9.07373L14.9242 6.09698L16.4129 4.60825ZM4.40765 18.8178L4.6553 16.5854C4.67297 16.4264 4.74393 16.278 4.85665 16.1645L13.9342 7.08899L16.911 10.0658L7.83341 19.1433C7.71966 19.2558 7.5714 19.3267 7.41247 19.3447L5.18007 19.5924C5.07602 19.6034 4.97082 19.591 4.87216 19.5562C4.77351 19.5213 4.6839 19.4648 4.60991 19.3908C4.53592 19.3168 4.47942 19.2272 4.44454 19.1285C4.40967 19.0299 4.3973 18.9247 4.40835 18.8206L4.40765 18.8178Z" fill="white"/>
</svg>
