<svg width="24" height="24" viewBox="0 0 24 24" fill="none" xmlns="http://www.w3.org/2000/svg">
<path d="M23.2969 1.96875H0.703125C0.314758 1.96875 0 2.28351 0 2.67188V21.3021C0 21.6905 0.314758 22.0052 0.703125 22.0052H23.2969C23.6852 22.0052 24 21.6905 24 21.3021V2.67188C24 2.28351 23.6852 1.96875 23.2969 1.96875ZM7.57324 19.3748V20.599H5.21393V19.3748H7.57324ZM8.97949 19.3748H11.3388V20.599H8.97949V19.3748ZM12.7451 19.3748H15.1046V20.599H12.7451V19.3748ZM16.5108 19.3748H18.8701V20.599H16.5108V19.3748ZM1.40625 17.9685V6.00549H22.5938V17.9685H1.40625ZM16.5108 4.59924V3.375H18.8701V4.59924H16.5108ZM15.1046 4.59924H12.7451V3.375H15.1046V4.59924ZM11.3388 4.59924H8.97949V3.375H11.3388V4.59924ZM7.57324 4.59924H5.21393V3.375H7.57324V4.59924ZM22.5938 4.59924H20.2764V3.375H22.5938V4.59924ZM3.80768 3.375V4.59924H1.40625V3.375H3.80768ZM1.40625 19.3748H3.80768V20.599H1.40625V19.3748ZM20.2764 20.599V19.3748H22.5938V20.599H20.2764Z" fill="white"/>
<path d="M14.6004 11.2626C14.5814 11.2487 14.5614 11.2357 14.5409 11.2238L10.5177 8.87529C10.2262 8.68467 9.84314 8.66307 9.5282 8.82347C9.21802 8.98112 9.02539 9.28892 9.02539 9.62657V14.3476C9.02539 14.6852 9.21802 14.9928 9.5282 15.1507C9.66919 15.2225 9.82391 15.2578 9.97791 15.2578C10.1678 15.2578 10.3568 15.2041 10.5177 15.0987L14.5409 12.7503C14.5614 12.7384 14.5814 12.7254 14.6004 12.7115C14.8383 12.5381 14.9749 12.2743 14.9749 11.9872C14.9749 11.7001 14.8383 11.4358 14.6004 11.2626ZM10.4318 13.5205V10.4535L13.059 11.987L10.4318 13.5205Z" fill="white"/>
</svg>
