<svg width="16" height="12" viewBox="0 0 16 12" fill="none" xmlns="http://www.w3.org/2000/svg">
<path d="M16 1.56501H0V1.03448C0 0.882137 0.123531 0.758606 0.275874 0.758606H15.7241C15.8765 0.758606 16 0.882137 16 1.03448L16 1.56501Z" fill="#FF4B55"/>
<path d="M16 3.98407H0V4.79044H16V3.98407Z" fill="#FF4B55"/>
<path d="M16 2.37125H0V3.17762H16V2.37125Z" fill="#FF4B55"/>
<path d="M16 6.40318H0.275874C0.123531 6.40318 0 6.27965 0 6.1273V5.59677H16V6.40318Z" fill="#FF4B55"/>
<path d="M16 8.82251H0V9.62888H16V8.82251Z" fill="#FF4B55"/>
<path d="M15.7241 11.2414H0.275874C0.123531 11.2414 0 11.1178 0 10.9655V10.435H16V10.9655C16 11.1179 15.8764 11.2414 15.7241 11.2414Z" fill="#FF4B55"/>
<path d="M16 7.20969H0V8.01606H16V7.20969Z" fill="#FF4B55"/>
</svg>
