<svg width="25" height="26" viewBox="0 0 25 26" fill="none" xmlns="http://www.w3.org/2000/svg">
<path d="M2.34172 7.9707C1.41638 9.64529 0.889893 11.563 0.889893 13.6022C0.889893 15.6415 1.41638 17.5609 2.34172 19.2355V7.9707Z" fill="#C28F2B"/>
<path d="M12.9442 1.76929C11.9662 1.76929 11.0173 1.8873 10.1067 2.10149V3.96372C11.0084 3.70999 11.9591 3.57074 12.9442 3.57074C18.5872 3.57074 23.1625 8.0481 23.1625 13.5722C23.1625 16.0599 22.2318 18.3352 20.6961 20.0853L20.4048 21.1061L19.7601 23.3654C22.9238 21.233 25.0002 17.6566 25.0002 13.6053C24.9984 7.06683 19.6018 1.76929 12.9442 1.76929Z" fill="#C28F2B"/>
<path d="M10.1067 19.7436H19.3524H19.5545C21.1192 18.1386 22.0829 15.9655 22.0829 13.5722C22.0829 8.63221 17.9922 4.62866 12.9448 4.62866C11.9538 4.62866 11.0013 4.78621 10.1073 5.07003V19.7436H10.1067Z" fill="#C28F2B"/>
<path d="M9.0135 0.146606H2.1355L3.43428 2.79361V23.1807L2.1355 25.826H17.92L19.3518 20.8164H9.0135V0.146606Z" fill="#C28F2B"/>
</svg>
