<svg width="24" height="24" viewBox="0 0 24 24" fill="none" xmlns="http://www.w3.org/2000/svg">
<g clip-path="url(#clip0_343_7122)">
<path d="M7.60622 19.432L6.43693 17.5476C6.37183 17.4427 6.2559 17.3787 6.13088 17.3787H3.85217C3.65417 17.3787 3.49365 17.2209 3.49365 17.0263V6.88521C3.49365 6.82132 3.51127 6.75863 3.54474 6.70393L5.09722 4.1608C5.16202 4.05468 5.27871 3.98975 5.40465 3.98975H19.5831C19.7811 3.98975 19.9416 4.14752 19.9416 4.34213V12.772C19.9416 12.8654 19.9039 12.955 19.8366 13.0211L15.5082 17.2755C15.4411 17.3415 15.3498 17.3787 15.2547 17.3787H11.085C10.961 17.3787 10.8458 17.4417 10.7804 17.5453L9.58806 19.4343C9.52266 19.538 9.40749 19.6009 9.28343 19.6009H7.91233C7.78731 19.6009 7.67132 19.5369 7.60622 19.432Z" fill="white"/>
<path d="M7.52448 15.1561H6.52398C6.41095 15.1561 6.31934 15.066 6.31934 14.9549V6.96831C6.31934 6.85721 6.41095 6.76721 6.52398 6.76721H18.0408C18.1539 6.76721 18.2455 6.85726 18.2455 6.96836V11.7232C18.2455 11.7766 18.2239 11.8277 18.1855 11.8654L14.8976 15.0972C14.8592 15.1349 14.8071 15.1561 14.7529 15.1561H9.69253C9.6191 15.1561 9.55131 15.1948 9.5149 15.2574L8.78624 16.5107C8.70768 16.6458 8.50943 16.6458 8.43087 16.5107L7.70221 15.2574C7.66575 15.1948 7.59791 15.1561 7.52448 15.1561Z" fill="#0166FE"/>
<path d="M9.14551 12.202V9.16639C9.14551 9.06886 9.226 8.98975 9.32522 8.98975H10.7179C10.8171 8.98975 10.8976 9.06886 10.8976 9.16639V12.202C10.8976 12.2995 10.8171 12.3786 10.7179 12.3786H9.32522C9.226 12.3786 9.14551 12.2995 9.14551 12.202Z" fill="white"/>
<path d="M13.1021 12.202V9.16639C13.1021 9.06886 13.1825 8.98975 13.2818 8.98975H14.6744C14.7737 8.98975 14.8542 9.06886 14.8542 9.16639V12.202C14.8542 12.2995 14.7737 12.3786 14.6744 12.3786H13.2818C13.1825 12.3786 13.1021 12.2995 13.1021 12.202Z" fill="white"/>
</g>
<defs>
<clipPath id="clip0_343_7122">
<rect width="24" height="24" fill="white"/>
</clipPath>
</defs>
</svg>
