<svg width="56" height="56" viewBox="0 0 56 56" fill="none" xmlns="http://www.w3.org/2000/svg">
<g clip-path="url(#clip0_137_321)">
<path d="M54.2381 45.7306L46.5641 38.0566L38.0566 46.564L45.7308 54.2381C48.08 56.5874 51.8889 56.5874 54.2382 54.2381C56.5874 51.8888 56.5874 48.0799 54.2381 45.7306Z" fill="#959595"/>
<path d="M24.1304 47.4312C24.5502 47.4312 24.9702 47.271 25.2905 46.9506C25.9312 46.3099 25.9312 45.2712 25.2905 44.6305L23.3629 42.7028L55.3979 16.5115C55.7789 16.1999 56 15.7336 56 15.2413V1.64062C56 0.734562 55.2654 0 54.3593 0H40.7584C40.2661 0 39.7999 0.221047 39.4883 0.602109L13.2969 32.637L11.3693 30.7093C10.7287 30.0687 9.68986 30.0686 9.04914 30.7093C8.40842 31.35 8.40842 32.3888 9.04914 33.0295L22.9703 46.9506C23.2907 47.2711 23.7104 47.4312 24.1304 47.4312ZM45.7856 7.89414C46.4262 7.25342 47.4651 7.25342 48.1058 7.89414C48.7465 8.53486 48.7465 9.57359 48.1058 10.2143L19.49 38.8301L17.1698 36.5099L45.7856 7.89414Z" fill="#959595"/>
<path d="M10.2694 54.2381L17.9433 46.5641L9.43603 38.0566L1.76195 45.7307C-0.587317 48.08 -0.587317 51.8889 1.76195 54.2382C4.11122 56.5873 7.92009 56.5873 10.2694 54.2381Z" fill="#959595"/>
<path d="M0.602109 16.5116L13.5726 27.116L18.621 20.9412L7.89414 10.2143C7.25342 9.5737 7.25342 8.53486 7.89414 7.89414C8.53486 7.25342 9.57359 7.25342 10.2143 7.89414L20.7084 18.3882L25.8809 12.0618L16.5116 0.602109C16.2 0.221047 15.7337 0 15.2414 0H1.64062C0.734562 0 0 0.734563 0 1.64063V15.2415C0 15.7338 0.221047 16.2 0.602109 16.5116Z" fill="#959595"/>
<path d="M44.6304 30.7094L42.7028 32.637L41.9638 31.7333L37.6116 35.2916L38.8299 36.5099L36.5097 38.8301L35.0586 37.3789L30.5918 41.0308L32.6369 42.7028L30.7093 44.6304C30.0686 45.271 30.0685 46.3099 30.7093 46.9506C31.35 47.5913 32.3887 47.5913 33.0294 46.9506L46.9506 33.0295C47.2709 32.7091 47.4312 32.2893 47.4312 31.8694C47.4312 31.4497 47.2709 31.0297 46.9506 30.7094C46.3099 30.0687 45.2711 30.0687 44.6304 30.7094Z" fill="#959595"/>
</g>
<defs>
<clipPath id="clip0_137_321">
<rect width="56" height="56" fill="white"/>
</clipPath>
</defs>
</svg>
