<svg width="24" height="24" viewBox="0 0 24 24" fill="none" xmlns="http://www.w3.org/2000/svg">
<path d="M18.75 5H5.25C4.65346 5.00062 4.08153 5.23213 3.65971 5.64372C3.2379 6.05531 3.00064 6.61337 3 7.19545V16.6045C3.00064 17.1866 3.2379 17.7447 3.65971 18.1563C4.08153 18.5679 4.65346 18.7994 5.25 18.8H18.75C19.3465 18.7994 19.9185 18.5679 20.3403 18.1563C20.7621 17.7447 20.9994 17.1866 21 16.6045V7.19545C20.9994 6.61337 20.7621 6.05531 20.3403 5.64372C19.9185 5.23213 19.3465 5.00062 18.75 5ZM18.1803 8.63152L12.3946 13.0224C12.2817 13.108 12.1429 13.1545 12 13.1545C11.8571 13.1545 11.7183 13.108 11.6054 13.0224L5.81973 8.63152C5.75176 8.58143 5.69466 8.51865 5.65176 8.44685C5.60886 8.37504 5.58102 8.29563 5.56984 8.21323C5.55867 8.13083 5.56439 8.04709 5.58667 7.96686C5.60895 7.88664 5.64735 7.81154 5.69964 7.74592C5.75192 7.6803 5.81705 7.62548 5.89124 7.58463C5.96543 7.54379 6.0472 7.51774 6.13179 7.508C6.21639 7.49825 6.30212 7.50501 6.38402 7.52788C6.46591 7.55075 6.54233 7.58927 6.60884 7.64121L12 11.7326L17.3912 7.64121C17.526 7.54187 17.6954 7.49831 17.8629 7.51993C18.0304 7.54155 18.1824 7.62663 18.2861 7.75676C18.3898 7.88688 18.4368 8.05161 18.417 8.21531C18.3972 8.379 18.3122 8.52852 18.1803 8.63152Z" fill="white"/>
</svg>
