<svg width="24" height="24" viewBox="0 0 24 24" fill="none" xmlns="http://www.w3.org/2000/svg">
<path d="M9.89491 20.8071C7.21597 20.7917 5 15.3231 5 12.538C5 7.98868 8.41279 6.9927 9.72806 6.9927C10.3208 6.9927 10.9537 7.22547 11.512 7.43145C11.9023 7.57514 12.3061 7.72346 12.5306 7.72346C12.665 7.72346 12.9817 7.59729 13.2614 7.48658C13.8577 7.24917 14.5998 6.9541 15.4639 6.9541C15.4655 6.9541 15.4676 6.9541 15.4691 6.9541C16.1143 6.9541 18.0708 7.09571 19.247 8.8621L19.5225 9.27614L19.126 9.57535C18.5595 10.0028 17.5259 10.7825 17.5259 12.3269C17.5259 14.1561 18.6965 14.8596 19.2588 15.198C19.5071 15.3473 19.764 15.5013 19.764 15.8381C19.764 16.058 18.009 20.7799 15.4603 20.7799C14.8367 20.7799 14.3959 20.5924 14.007 20.4271C13.6136 20.2597 13.2742 20.1155 12.7134 20.1155C12.4291 20.1155 12.0696 20.2499 11.6891 20.3926C11.169 20.5867 10.5804 20.8071 9.91242 20.8071H9.89491Z" fill="white"/>
<path d="M15.7342 3C15.8005 5.3933 14.089 7.05366 12.3794 6.94952C12.0977 5.03959 14.0888 3 15.7342 3Z" fill="white"/>
</svg>
