<svg width="24" height="24" viewBox="0 0 24 24" fill="none" xmlns="http://www.w3.org/2000/svg">
<path d="M10.4623 16.7198L8.34118 18.8409C7.46183 19.7203 6.03778 19.7203 5.15917 18.8411C4.28038 17.9623 4.28038 16.5381 5.15899 15.6595L9.40188 11.4166C10.2805 10.5379 11.7047 10.5379 12.5833 11.4166C12.8762 11.7095 13.3511 11.7095 13.644 11.4166C13.9369 11.1237 13.9369 10.6488 13.644 10.3559C12.1795 8.89146 9.80562 8.89146 8.34118 10.3559L4.09833 14.5988C2.63389 16.0632 2.63389 18.4371 4.09833 19.9016C5.5626 21.3668 7.9367 21.3668 9.40191 19.9016L11.523 17.7805C11.8159 17.4876 11.8159 17.0127 11.523 16.7198C11.2301 16.4269 10.7552 16.4269 10.4623 16.7198Z" fill="white"/>
<path d="M19.9018 4.09833C18.4373 2.63389 16.0626 2.63389 14.5982 4.09833L12.0534 6.64315C11.7605 6.93605 11.7605 7.41095 12.0534 7.70385C12.3463 7.99674 12.8212 7.99674 13.1141 7.70385L15.6589 5.15902C16.5375 4.28037 17.9624 4.28037 18.8411 5.15902C19.7197 6.03764 19.7197 7.46182 18.8411 8.34044L14.1744 13.0071C13.2958 13.8858 11.8716 13.8858 10.993 13.0071C10.7001 12.7142 10.2252 12.7142 9.93232 13.0071C9.63942 13.3 9.63942 13.7749 9.93232 14.0678C11.3968 15.5322 13.7707 15.5322 15.2351 14.0678L19.9018 9.40117C21.3662 7.93673 21.3662 5.56277 19.9018 4.09833Z" fill="white"/>
</svg>
