<svg width="40" height="41" viewBox="0 0 40 41" fill="none" xmlns="http://www.w3.org/2000/svg">
<g clip-path="url(#clip0_137_1595)">
<path d="M19.9647 32.2638C28.736 32.2638 35.8466 25.1532 35.8466 16.3819C35.8466 7.61056 28.736 0.5 19.9647 0.5C11.1933 0.5 4.08276 7.61056 4.08276 16.3819C4.08276 25.1532 11.1933 32.2638 19.9647 32.2638Z" fill="#FFD15C"/>
<path d="M7.09836 25.6732L1.63379 35.1457L8.01174 34.8071L10.9094 40.5L15.9645 31.7362C12.3424 30.7992 9.23221 28.6181 7.09836 25.6732Z" fill="#40596B"/>
<path d="M32.8621 25.626C30.7439 28.5787 27.6337 30.7677 24.0195 31.7205L29.0904 40.5L31.988 34.8071L38.366 35.1457L32.8621 25.626Z" fill="#40596B"/>
<path d="M19.9644 27.8937C26.3222 27.8937 31.4762 22.7397 31.4762 16.3819C31.4762 10.0241 26.3222 4.87012 19.9644 4.87012C13.6066 4.87012 8.45264 10.0241 8.45264 16.3819C8.45264 22.7397 13.6066 27.8937 19.9644 27.8937Z" fill="#F8B64C"/>
<path d="M27.8545 15.1378C28.2088 14.7914 28.0119 14.1851 27.5238 14.1142L22.9804 13.4528C22.7836 13.4213 22.6182 13.3032 22.5316 13.1221L20.5001 9.00397C20.2796 8.55515 19.6419 8.55515 19.4214 9.00397L17.3978 13.1221C17.3111 13.2953 17.1379 13.4213 16.9489 13.4528L12.4056 14.1142C11.9174 14.1851 11.7206 14.7914 12.0749 15.1378L15.3584 18.3426C15.5001 18.4843 15.5631 18.6811 15.5316 18.8701L14.76 23.3898C14.6733 23.878 15.193 24.256 15.634 24.0197L19.697 21.8859C19.8702 21.7914 20.0828 21.7914 20.256 21.8859L24.319 24.0197C24.76 24.2481 25.2718 23.878 25.193 23.3898L24.4135 18.8701C24.382 18.6733 24.445 18.4764 24.5867 18.3426L27.8545 15.1378Z" fill="white"/>
</g>
<defs>
<clipPath id="clip0_137_1595">
<rect width="40" height="40" fill="white" transform="translate(0 0.5)"/>
</clipPath>
</defs>
</svg>
