<svg width="35" height="34" viewBox="0 0 35 34" fill="none" xmlns="http://www.w3.org/2000/svg">
<path d="M13 7H25L27.7149 3.02881C28.086 2.41112 28.0952 1.64162 27.7402 1.01462C27.3852 0.387687 26.7207 0 26 0H23C22.4697 0 21.9609 0.210938 21.5859 0.585938L20 2.17138L18.4141 0.585938C18.0391 0.210938 17.5302 0 17 0H12C11.2793 0 10.6147 0.387687 10.2597 1.01462C9.90474 1.64156 9.91405 2.41112 10.2851 3.02881L13 7Z" fill="#959595"/>
<path d="M25 9H13C8.52787 12.3993 5 18.7765 5 23.7891C5 32 12.438 32 19 32C25.562 32 33 32 33 23.7891C33 18.7765 29.4721 12.3993 25 9Z" fill="#959595"/>
<circle cx="7" cy="27" r="7" fill="#FEA800"/>
<rect x="6" y="23" width="2" height="8" rx="1" fill="white"/>
<rect x="3" y="28" width="2" height="8" rx="1" transform="rotate(-90 3 28)" fill="white"/>
</svg>
