<svg width="24" height="24" viewBox="0 0 24 24" fill="none" xmlns="http://www.w3.org/2000/svg">
<g clip-path="url(#clip0_4118_1284)">
<path d="M23.2445 19.5984L19.9556 16.3096L16.3096 19.9556L19.5985 23.2445C20.6053 24.2513 22.2377 24.2513 23.2445 23.2445C24.2513 22.2376 24.2513 20.6053 23.2445 19.5984Z" fill="#666C7C"/>
<path d="M10.3412 20.3277C10.5211 20.3277 10.7011 20.259 10.8384 20.1217C11.113 19.8471 11.113 19.4019 10.8384 19.1273L10.0123 18.3012L23.7416 7.07634C23.9049 6.9428 23.9996 6.74297 23.9996 6.53198V0.703125C23.9996 0.314812 23.6848 0 23.2965 0H17.4675C17.2565 0 17.0567 0.0947344 16.9232 0.258047L5.69831 13.9873L4.87218 13.1611C4.59763 12.8866 4.15241 12.8865 3.87782 13.1611C3.60323 13.4357 3.60323 13.8809 3.87782 14.1555L9.84403 20.1217C9.98133 20.259 10.1612 20.3277 10.3412 20.3277ZM19.622 3.3832C19.8966 3.10861 20.3418 3.10861 20.6164 3.3832C20.891 3.6578 20.891 4.10297 20.6164 4.37756L8.35247 16.6415L7.35811 15.6471L19.622 3.3832Z" fill="#666C7C"/>
<path d="M4.40115 23.2445L7.69 19.9556L4.04401 16.3096L0.755121 19.5985C-0.251707 20.6053 -0.251707 22.2377 0.755121 23.2445C1.76195 24.2513 3.39432 24.2513 4.40115 23.2445Z" fill="#666C7C"/>
<path d="M0.258047 7.07639L5.81681 11.6212L7.98042 8.97478L3.3832 4.37756C3.10861 4.10302 3.10861 3.6578 3.3832 3.3832C3.6578 3.10861 4.10297 3.10861 4.37756 3.3832L8.87503 7.88067L11.0918 5.16933L7.07639 0.258047C6.94284 0.0947344 6.74302 0 6.53203 0H0.703125C0.314812 0 0 0.314813 0 0.703125V6.53208C0 6.74306 0.0947344 6.94284 0.258047 7.07639Z" fill="#666C7C"/>
<path d="M19.1272 13.161L18.3011 13.9871L17.9844 13.5998L16.1191 15.1248L16.6413 15.6469L15.6469 16.6413L15.025 16.0194L13.1107 17.5845L13.9871 18.301L13.161 19.1272C12.8865 19.4017 12.8864 19.8469 13.161 20.1215C13.4356 20.3961 13.8808 20.3961 14.1554 20.1215L20.1216 14.1553C20.2589 14.018 20.3275 13.8381 20.3275 13.6582C20.3275 13.4783 20.2589 13.2983 20.1216 13.161C19.847 12.8864 19.4018 12.8864 19.1272 13.161Z" fill="#666C7C"/>
</g>
<defs>
<clipPath id="clip0_4118_1284">
<rect width="24" height="24" fill="white"/>
</clipPath>
</defs>
</svg>
