<svg width="24" height="24" viewBox="0 0 24 24" fill="none" xmlns="http://www.w3.org/2000/svg">
<g clip-path="url(#clip0_330_6306)">
<path d="M23.245 19.5989L19.9561 16.31L16.3101 19.956L19.599 23.2449C20.6058 24.2517 22.2382 24.2517 23.245 23.2449C24.2518 22.2381 24.2518 20.6057 23.245 19.5989Z" fill="white"/>
<path d="M10.3417 20.3277C10.5216 20.3277 10.7016 20.259 10.8389 20.1217C11.1135 19.8471 11.1135 19.4019 10.8389 19.1273L10.0128 18.3012L23.742 7.07634C23.9054 6.9428 24.0001 6.74297 24.0001 6.53198V0.703125C24.0001 0.314812 23.6853 0 23.297 0H17.468C17.257 0 17.0572 0.0947344 16.9236 0.258047L5.6988 13.9873L4.87267 13.1611C4.59812 12.8866 4.1529 12.8865 3.87831 13.1611C3.60371 13.4357 3.60371 13.8809 3.87831 14.1555L9.84452 20.1217C9.98182 20.259 10.1617 20.3277 10.3417 20.3277ZM19.6225 3.3832C19.8971 3.10861 20.3423 3.10861 20.6169 3.3832C20.8915 3.6578 20.8915 4.10297 20.6169 4.37756L8.35296 16.6415L7.35859 15.6471L19.6225 3.3832Z" fill="white"/>
<path d="M4.40115 23.2449L7.69 19.956L4.04401 16.31L0.755121 19.5989C-0.251707 20.6057 -0.251707 22.2381 0.755121 23.2449C1.76195 24.2517 3.39432 24.2517 4.40115 23.2449Z" fill="white"/>
<path d="M0.258047 7.07639L5.81681 11.6212L7.98042 8.97478L3.3832 4.37756C3.10861 4.10302 3.10861 3.6578 3.3832 3.3832C3.6578 3.10861 4.10297 3.10861 4.37756 3.3832L8.87503 7.88067L11.0918 5.16933L7.07639 0.258047C6.94284 0.0947344 6.74302 0 6.53203 0H0.703125C0.314812 0 0 0.314813 0 0.703125V6.53208C0 6.74306 0.0947344 6.94284 0.258047 7.07639Z" fill="white"/>
<path d="M19.1272 13.1611L18.3011 13.9873L17.9844 13.5999L16.1191 15.1249L16.6413 15.6471L15.6469 16.6414L15.025 16.0195L13.1107 17.5846L13.9871 18.3012L13.161 19.1273C12.8865 19.4018 12.8864 19.8471 13.161 20.1216C13.4356 20.3962 13.8808 20.3962 14.1554 20.1216L20.1216 14.1555C20.2589 14.0182 20.3275 13.8383 20.3275 13.6583C20.3275 13.4784 20.2589 13.2984 20.1216 13.1611C19.847 12.8866 19.4018 12.8866 19.1272 13.1611Z" fill="white"/>
</g>
<defs>
<clipPath id="clip0_330_6306">
<rect width="24" height="24" fill="white"/>
</clipPath>
</defs>
</svg>
