<svg width="44" height="44" viewBox="0 0 44 44" fill="none" xmlns="http://www.w3.org/2000/svg">
<g clip-path="url(#clip0_3940_5516)">
<path d="M42.6154 35.9309L36.5858 29.9014L29.9014 36.5857L35.931 42.6154C37.7769 44.4612 40.7696 44.4612 42.6154 42.6154C44.4612 40.7695 44.4612 37.7768 42.6154 35.9309Z" fill="white"/>
<path d="M18.9596 37.2674C19.2894 37.2674 19.6194 37.1415 19.871 36.8898C20.3745 36.3864 20.3745 35.5702 19.871 35.0668L18.3565 33.5522L43.5268 12.9733C43.8262 12.7285 43.9999 12.3621 43.9999 11.9753V1.28906C43.9999 0.577156 43.4228 0 42.7108 0H32.0244C31.6376 0 31.2713 0.17368 31.0264 0.473086L10.4475 25.6433L8.93298 24.1288C8.42965 23.6254 7.61341 23.6253 7.10999 24.1288C6.60657 24.6322 6.60657 25.4483 7.10999 25.9517L18.048 36.8898C18.2998 37.1416 18.6296 37.2674 18.9596 37.2674ZM35.9744 6.20254C36.4777 5.69912 37.2939 5.69912 37.7974 6.20254C38.3008 6.70596 38.3008 7.52211 37.7974 8.02553L15.3135 30.5094L13.4905 28.6864L35.9744 6.20254Z" fill="white"/>
<path d="M8.06878 42.6154L14.0983 36.5858L7.41402 29.9014L1.38439 35.931C-0.461463 37.7769 -0.461463 40.7696 1.38439 42.6154C3.23024 44.4612 6.22293 44.4612 8.06878 42.6154Z" fill="white"/>
<path d="M0.473086 12.9734L10.6642 21.3055L14.6308 16.4538L6.20254 8.02553C5.69912 7.5222 5.69912 6.70596 6.20254 6.20254C6.70596 5.69912 7.52211 5.69912 8.02553 6.20254L16.2709 14.4479L20.335 9.4771L12.9734 0.473086C12.7285 0.17368 12.3622 0 11.9754 0H1.28906C0.577156 0 0 0.577156 0 1.28906V11.9755C0 12.3623 0.17368 12.7285 0.473086 12.9734Z" fill="white"/>
<path d="M35.0665 24.1285L33.552 25.6431L32.9714 24.933L29.5518 27.7288L30.509 28.6861L28.686 30.509L27.5458 29.3688L24.0362 32.2382L25.6431 33.5519L24.1285 35.0665C23.6252 35.5698 23.6251 36.386 24.1285 36.8895C24.6319 37.3929 25.4481 37.3929 25.9515 36.8895L36.8895 25.9514C37.1413 25.6997 37.2671 25.3699 37.2671 25.04C37.2671 24.7102 37.1413 24.3802 36.8895 24.1285C36.3861 23.6251 35.57 23.6251 35.0665 24.1285Z" fill="white"/>
</g>
<defs>
<clipPath id="clip0_3940_5516">
<rect width="44" height="44">
</clipPath>
</defs>
</svg>
