<svg width="16" height="12" viewBox="0 0 16 12" fill="none" xmlns="http://www.w3.org/2000/svg">
<g clip-path="url(#clip0_421_312)">
<path d="M15.7241 11.2414H0.275874C0.123531 11.2414 0 11.1178 0 10.9655V1.03448C0 0.882137 0.123531 0.758606 0.275874 0.758606H15.7241C15.8765 0.758606 16 0.882137 16 1.03448V10.9655C16 11.1179 15.8764 11.2414 15.7241 11.2414Z" fill="#F5F5F5"/>
<path d="M16 1.56501H0V1.03448C0 0.882137 0.123531 0.758606 0.275874 0.758606H15.7241C15.8765 0.758606 16 0.882137 16 1.03448L16 1.56501Z" fill="#FF4B55"/>
<path d="M16 3.98407H0V4.79044H16V3.98407Z" fill="#FF4B55"/>
<path d="M16 2.37128H0V3.17765H16V2.37128Z" fill="#FF4B55"/>
<path d="M16 6.40321H0.275874C0.123531 6.40321 0 6.27968 0 6.12733V5.5968H16V6.40321Z" fill="#FF4B55"/>
<path d="M16 8.82251H0V9.62888H16V8.82251Z" fill="#FF4B55"/>
<path d="M15.7241 11.2414H0.275874C0.123531 11.2414 0 11.1178 0 10.9655V10.435H16V10.9655C16 11.1179 15.8764 11.2414 15.7241 11.2414Z" fill="#FF4B55"/>
<path d="M16 7.20966H0V8.01603H16V7.20966Z" fill="#FF4B55"/>
<path d="M7.17239 0.758667H0.275874C0.123531 0.758667 0 0.882167 0 1.03451V6.12731C0 6.27966 0.123531 6.40319 0.275874 6.40319H7.17242C7.32477 6.40319 7.4483 6.27966 7.4483 6.12731V1.03451C7.44827 0.882167 7.32474 0.758667 7.17239 0.758667Z" fill="#41479B"/>
<path d="M0.774573 1.39193L0.835635 1.57506L1.02867 1.57652C1.05367 1.57674 1.06401 1.60862 1.04392 1.62346L0.888635 1.73815L0.946885 1.92218C0.954448 1.94599 0.927292 1.96574 0.906948 1.95118L0.749917 1.83896L0.592886 1.95121C0.572542 1.96574 0.545449 1.94602 0.552949 1.92221L0.611198 1.73818L0.455917 1.62349C0.435824 1.60862 0.446167 1.57677 0.471167 1.57656L0.664198 1.57509L0.725261 1.39196C0.733136 1.36821 0.766636 1.36821 0.774573 1.39193Z" fill="#F5F5F5"/>
<path d="M0.774573 2.34973L0.835635 2.53286L1.02867 2.53433C1.05367 2.53454 1.06401 2.56642 1.04392 2.58126L0.888635 2.69595L0.946885 2.87998C0.954448 2.90379 0.927292 2.92354 0.906948 2.90898L0.749917 2.79676L0.592886 2.90901C0.572542 2.92354 0.545449 2.90382 0.552949 2.88001L0.611198 2.69598L0.455917 2.58129C0.435824 2.56642 0.446167 2.53458 0.471167 2.53436L0.664198 2.53289L0.725261 2.34976C0.733136 2.32604 0.766636 2.32604 0.774573 2.34973Z" fill="#F5F5F5"/>
<path d="M0.774573 3.30768L0.835635 3.4908L1.02867 3.49227C1.05367 3.49249 1.06401 3.52437 1.04392 3.53921L0.888635 3.6539L0.946885 3.83793C0.954448 3.86174 0.927292 3.88149 0.906948 3.86693L0.749917 3.75471L0.592886 3.86696C0.572542 3.88149 0.545449 3.86177 0.552949 3.83796L0.611198 3.65393L0.455917 3.53924C0.435824 3.52437 0.446167 3.49252 0.471167 3.4923L0.664198 3.49083L0.725261 3.30771C0.733136 3.28399 0.766636 3.28399 0.774573 3.30768Z" fill="#F5F5F5"/>
<path d="M0.774573 4.26565L0.835635 4.44877L1.02867 4.45024C1.05367 4.45046 1.06401 4.48234 1.04392 4.49718L0.888635 4.61187L0.946885 4.7959C0.954448 4.81971 0.927292 4.83946 0.906948 4.8249L0.749917 4.71268L0.592886 4.82493C0.572542 4.83946 0.545449 4.81974 0.552949 4.79593L0.611198 4.6119L0.455917 4.49721C0.435824 4.48234 0.446167 4.45049 0.471167 4.45027L0.664198 4.4488L0.725261 4.26568C0.733136 4.24193 0.766636 4.24193 0.774573 4.26565Z" fill="#F5F5F5"/>
<path d="M0.774573 5.22362L0.835635 5.40674L1.02867 5.40821C1.05367 5.40843 1.06401 5.44031 1.04392 5.45515L0.888635 5.56984L0.946885 5.75387C0.954448 5.77768 0.927292 5.79743 0.906948 5.78287L0.749917 5.67065L0.592886 5.7829C0.572542 5.79743 0.545449 5.77771 0.552949 5.7539L0.611198 5.56987L0.455917 5.45518C0.435824 5.44031 0.446167 5.40846 0.471167 5.40824L0.664198 5.40678L0.725261 5.22365C0.733136 5.19987 0.766636 5.19987 0.774573 5.22362Z" fill="#F5F5F5"/>
<path d="M1.51823 1.86145L1.57929 2.04458L1.77232 2.04605C1.79732 2.04627 1.80766 2.07814 1.78757 2.09299L1.63229 2.20767L1.69054 2.3917C1.6981 2.41552 1.67094 2.43527 1.6506 2.4207L1.49357 2.30845L1.33654 2.4207C1.31619 2.43523 1.2891 2.41552 1.2966 2.3917L1.35485 2.20767L1.19957 2.09299C1.17948 2.07811 1.18982 2.04627 1.21482 2.04605L1.40785 2.04458L1.46891 1.86145C1.47676 1.83777 1.51032 1.83777 1.51823 1.86145Z" fill="#F5F5F5"/>
<path d="M1.51823 2.81942L1.57929 3.00255L1.77232 3.00402C1.79732 3.00424 1.80766 3.03611 1.78757 3.05096L1.63229 3.16564L1.69054 3.34967C1.6981 3.37349 1.67094 3.39324 1.6506 3.37867L1.49357 3.26642L1.33654 3.37867C1.31619 3.3932 1.2891 3.37352 1.2966 3.34967L1.35485 3.16564L1.19957 3.05096C1.17948 3.03608 1.18982 3.00424 1.21482 3.00402L1.40785 3.00255L1.46891 2.81942C1.47676 2.79571 1.51032 2.79571 1.51823 2.81942Z" fill="#F5F5F5"/>
<path d="M1.51823 3.77737L1.57929 3.9605L1.77232 3.96197C1.79732 3.96218 1.80766 3.99406 1.78757 4.0089L1.63229 4.12359L1.69054 4.30762C1.6981 4.33143 1.67094 4.35118 1.6506 4.33662L1.49357 4.22437L1.33654 4.33662C1.31619 4.35115 1.2891 4.33143 1.2966 4.30762L1.35485 4.12359L1.19957 4.0089C1.17948 3.99403 1.18982 3.96218 1.21482 3.96197L1.40785 3.9605L1.46891 3.77737C1.47676 3.75365 1.51032 3.75365 1.51823 3.77737Z" fill="#F5F5F5"/>
<path d="M1.51823 4.73529L1.57929 4.91842L1.77232 4.91989C1.79732 4.92011 1.80766 4.95198 1.78757 4.96683L1.63229 5.08151L1.69054 5.26555C1.6981 5.28936 1.67094 5.30911 1.6506 5.29454L1.49357 5.18229L1.33654 5.29454C1.31619 5.30908 1.2891 5.28936 1.2966 5.26555L1.35485 5.08151L1.19957 4.96683C1.17948 4.95195 1.18982 4.92011 1.21482 4.91989L1.40785 4.91842L1.46891 4.73529C1.47676 4.71161 1.51032 4.71161 1.51823 4.73529Z" fill="#F5F5F5"/>
<path d="M2.26188 1.39181L2.32294 1.57494L2.51597 1.57641C2.54097 1.57662 2.55132 1.6085 2.53122 1.62334L2.37594 1.73803L2.43419 1.92206C2.44175 1.94587 2.4146 1.96562 2.39425 1.95106L2.23722 1.83881L2.08019 1.95106C2.05985 1.96559 2.03275 1.94587 2.04025 1.92206L2.0985 1.73803L1.94322 1.62334C1.92313 1.60847 1.93347 1.57662 1.95847 1.57641L2.1515 1.57494L2.21257 1.39181C2.22044 1.36809 2.25397 1.36809 2.26188 1.39181Z" fill="#F5F5F5"/>
<path d="M2.26188 2.34974L2.32294 2.53286L2.51597 2.53433C2.54097 2.53455 2.55132 2.56642 2.53122 2.58127L2.37594 2.69595L2.43419 2.87998C2.44175 2.9038 2.4146 2.92355 2.39425 2.90898L2.23722 2.79673L2.08019 2.90898C2.05985 2.92352 2.03275 2.9038 2.04025 2.87998L2.0985 2.69595L1.94322 2.58127C1.92313 2.56639 1.93347 2.53455 1.95847 2.53433L2.1515 2.53286L2.21257 2.34974C2.22044 2.32605 2.25397 2.32605 2.26188 2.34974Z" fill="#F5F5F5"/>
<path d="M2.26188 3.30768L2.32294 3.49081L2.51597 3.49228C2.54097 3.4925 2.55132 3.52437 2.53122 3.53921L2.37594 3.6539L2.43419 3.83793C2.44175 3.86174 2.4146 3.88149 2.39425 3.86693L2.23722 3.75468L2.08019 3.86693C2.05985 3.88146 2.03275 3.86174 2.04025 3.83793L2.0985 3.6539L1.94322 3.53921C1.92313 3.52434 1.93347 3.4925 1.95847 3.49228L2.1515 3.49081L2.21257 3.30768C2.22044 3.284 2.25397 3.284 2.26188 3.30768Z" fill="#F5F5F5"/>
<path d="M2.26188 4.26565L2.32294 4.44878L2.51597 4.45025C2.54097 4.45047 2.55132 4.48234 2.53122 4.49718L2.37594 4.61187L2.43419 4.7959C2.44175 4.81971 2.4146 4.83946 2.39425 4.8249L2.23722 4.71265L2.08019 4.8249C2.05985 4.83943 2.03275 4.81971 2.04025 4.7959L2.0985 4.61187L1.94322 4.49718C1.92313 4.48231 1.93347 4.45047 1.95847 4.45025L2.1515 4.44878L2.21257 4.26565C2.22044 4.24193 2.25397 4.24193 2.26188 4.26565Z" fill="#F5F5F5"/>
<path d="M2.26188 5.22356L2.32294 5.40669L2.51597 5.40816C2.54097 5.40837 2.55132 5.44025 2.53122 5.45509L2.37594 5.56978L2.43419 5.75381C2.44175 5.77762 2.4146 5.79737 2.39425 5.78281L2.23722 5.67056L2.08019 5.78281C2.05985 5.79734 2.03275 5.77762 2.04025 5.75381L2.0985 5.56978L1.94322 5.45509C1.92313 5.44022 1.93347 5.40837 1.95847 5.40816L2.1515 5.40669L2.21257 5.22356C2.22044 5.19981 2.25397 5.19981 2.26188 5.22356Z" fill="#F5F5F5"/>
<path d="M3.00504 1.86145L3.0661 2.04458L3.25914 2.04605C3.28414 2.04627 3.29448 2.07814 3.27439 2.09299L3.1191 2.20767L3.17735 2.3917C3.18492 2.41552 3.15776 2.43527 3.13742 2.4207L2.98039 2.30845L2.82335 2.4207C2.80301 2.43523 2.77592 2.41552 2.78342 2.3917L2.84167 2.20767L2.68639 2.09299C2.66629 2.07811 2.67664 2.04627 2.70164 2.04605L2.89467 2.04458L2.95573 1.86145C2.96357 1.83777 2.99714 1.83777 3.00504 1.86145Z" fill="#F5F5F5"/>
<path d="M3.00504 2.81942L3.0661 3.00255L3.25914 3.00402C3.28414 3.00424 3.29448 3.03611 3.27439 3.05096L3.1191 3.16564L3.17735 3.34967C3.18492 3.37349 3.15776 3.39324 3.13742 3.37867L2.98039 3.26642L2.82335 3.37867C2.80301 3.3932 2.77592 3.37352 2.78342 3.34967L2.84167 3.16564L2.68639 3.05096C2.66629 3.03608 2.67664 3.00424 2.70164 3.00402L2.89467 3.00255L2.95573 2.81942C2.96357 2.79571 2.99714 2.79571 3.00504 2.81942Z" fill="#F5F5F5"/>
<path d="M3.00504 3.77737L3.0661 3.9605L3.25914 3.96197C3.28414 3.96218 3.29448 3.99406 3.27439 4.0089L3.1191 4.12359L3.17735 4.30762C3.18492 4.33143 3.15776 4.35118 3.13742 4.33662L2.98039 4.22437L2.82335 4.33662C2.80301 4.35115 2.77592 4.33143 2.78342 4.30762L2.84167 4.12359L2.68639 4.0089C2.66629 3.99403 2.67664 3.96218 2.70164 3.96197L2.89467 3.9605L2.95573 3.77737C2.96357 3.75365 2.99714 3.75365 3.00504 3.77737Z" fill="#F5F5F5"/>
<path d="M3.00504 4.73529L3.0661 4.91842L3.25914 4.91989C3.28414 4.92011 3.29448 4.95198 3.27439 4.96683L3.1191 5.08151L3.17735 5.26555C3.18492 5.28936 3.15776 5.30911 3.13742 5.29454L2.98039 5.18229L2.82335 5.29454C2.80301 5.30908 2.77592 5.28936 2.78342 5.26555L2.84167 5.08151L2.68639 4.96683C2.66629 4.95195 2.67664 4.92011 2.70164 4.91989L2.89467 4.91842L2.95573 4.73529C2.96357 4.71161 2.99714 4.71161 3.00504 4.73529Z" fill="#F5F5F5"/>
<path d="M3.74872 1.39181L3.80979 1.57494L4.00282 1.57641C4.02782 1.57662 4.03816 1.6085 4.01807 1.62334L3.86279 1.73803L3.92104 1.92206C3.9286 1.94587 3.90144 1.96562 3.8811 1.95106L3.72404 1.83881L3.56701 1.95106C3.54666 1.96559 3.51957 1.94587 3.52707 1.92206L3.58532 1.73803L3.43004 1.62334C3.40994 1.60847 3.42029 1.57662 3.44529 1.57641L3.63832 1.57494L3.69938 1.39181C3.70729 1.36809 3.74082 1.36809 3.74872 1.39181Z" fill="#F5F5F5"/>
<path d="M3.74872 2.34974L3.80979 2.53286L4.00282 2.53433C4.02782 2.53455 4.03816 2.56642 4.01807 2.58127L3.86279 2.69595L3.92104 2.87998C3.9286 2.9038 3.90144 2.92355 3.8811 2.90898L3.72404 2.79673L3.56701 2.90898C3.54666 2.92352 3.51957 2.9038 3.52707 2.87998L3.58532 2.69595L3.43004 2.58127C3.40994 2.56639 3.42029 2.53455 3.44529 2.53433L3.63832 2.53286L3.69938 2.34974C3.70729 2.32605 3.74082 2.32605 3.74872 2.34974Z" fill="#F5F5F5"/>
<path d="M3.74872 3.30768L3.80979 3.49081L4.00282 3.49228C4.02782 3.4925 4.03816 3.52437 4.01807 3.53921L3.86279 3.6539L3.92104 3.83793C3.9286 3.86174 3.90144 3.88149 3.8811 3.86693L3.72404 3.75468L3.56701 3.86693C3.54666 3.88146 3.51957 3.86174 3.52707 3.83793L3.58532 3.6539L3.43004 3.53921C3.40994 3.52434 3.42029 3.4925 3.44529 3.49228L3.63832 3.49081L3.69938 3.30768C3.70729 3.284 3.74082 3.284 3.74872 3.30768Z" fill="#F5F5F5"/>
<path d="M3.74872 4.26565L3.80979 4.44878L4.00282 4.45025C4.02782 4.45047 4.03816 4.48234 4.01807 4.49718L3.86279 4.61187L3.92104 4.7959C3.9286 4.81971 3.90144 4.83946 3.8811 4.8249L3.72404 4.71265L3.56701 4.8249C3.54666 4.83943 3.51957 4.81971 3.52707 4.7959L3.58532 4.61187L3.43004 4.49718C3.40994 4.48231 3.42029 4.45047 3.44529 4.45025L3.63832 4.44878L3.69938 4.26565C3.70729 4.24193 3.74082 4.24193 3.74872 4.26565Z" fill="#F5F5F5"/>
<path d="M3.74872 5.22356L3.80979 5.40669L4.00282 5.40816C4.02782 5.40837 4.03816 5.44025 4.01807 5.45509L3.86279 5.56978L3.92104 5.75381C3.9286 5.77762 3.90144 5.79737 3.8811 5.78281L3.72404 5.67056L3.56701 5.78281C3.54666 5.79734 3.51957 5.77762 3.52707 5.75381L3.58532 5.56978L3.43004 5.45509C3.40994 5.44022 3.42029 5.40837 3.44529 5.40816L3.63832 5.40669L3.69938 5.22356C3.70729 5.19981 3.74082 5.19981 3.74872 5.22356Z" fill="#F5F5F5"/>
<path d="M4.49235 1.86145L4.55341 2.04458L4.74644 2.04605C4.77144 2.04627 4.78178 2.07814 4.76169 2.09299L4.60641 2.20767L4.66466 2.3917C4.67222 2.41552 4.64507 2.43527 4.62472 2.4207L4.46769 2.30845L4.31066 2.4207C4.29032 2.43523 4.26322 2.41552 4.27072 2.3917L4.32897 2.20767L4.17369 2.09299C4.1536 2.07811 4.16394 2.04627 4.18894 2.04605L4.38197 2.04458L4.44303 1.86145C4.45094 1.83777 4.48444 1.83777 4.49235 1.86145Z" fill="#F5F5F5"/>
<path d="M4.49235 2.81942L4.55341 3.00255L4.74644 3.00402C4.77144 3.00424 4.78178 3.03611 4.76169 3.05096L4.60641 3.16564L4.66466 3.34967C4.67222 3.37349 4.64507 3.39324 4.62472 3.37867L4.46769 3.26642L4.31066 3.37867C4.29032 3.3932 4.26322 3.37352 4.27072 3.34967L4.32897 3.16564L4.17369 3.05096C4.1536 3.03608 4.16394 3.00424 4.18894 3.00402L4.38197 3.00255L4.44303 2.81942C4.45094 2.79571 4.48444 2.79571 4.49235 2.81942Z" fill="#F5F5F5"/>
<path d="M4.49235 3.77737L4.55341 3.9605L4.74644 3.96197C4.77144 3.96218 4.78178 3.99406 4.76169 4.0089L4.60641 4.12359L4.66466 4.30762C4.67222 4.33143 4.64507 4.35118 4.62472 4.33662L4.46769 4.22437L4.31066 4.33662C4.29032 4.35115 4.26322 4.33143 4.27072 4.30762L4.32897 4.12359L4.17369 4.0089C4.1536 3.99403 4.16394 3.96218 4.18894 3.96197L4.38197 3.9605L4.44303 3.77737C4.45094 3.75365 4.48444 3.75365 4.49235 3.77737Z" fill="#F5F5F5"/>
<path d="M4.49235 4.73529L4.55341 4.91842L4.74644 4.91989C4.77144 4.92011 4.78178 4.95198 4.76169 4.96683L4.60641 5.08151L4.66466 5.26555C4.67222 5.28936 4.64507 5.30911 4.62472 5.29454L4.46769 5.18229L4.31066 5.29454C4.29032 5.30908 4.26322 5.28936 4.27072 5.26555L4.32897 5.08151L4.17369 4.96683C4.1536 4.95195 4.16394 4.92011 4.18894 4.91989L4.38197 4.91842L4.44303 4.73529C4.45094 4.71161 4.48444 4.71161 4.49235 4.73529Z" fill="#F5F5F5"/>
<path d="M5.236 1.39181L5.29706 1.57494L5.49009 1.57641C5.51509 1.57662 5.52544 1.6085 5.50534 1.62334L5.35006 1.73803L5.40831 1.92206C5.41587 1.94587 5.38872 1.96562 5.36837 1.95106L5.21134 1.83881L5.05431 1.95106C5.03397 1.96559 5.00687 1.94587 5.01437 1.92206L5.07262 1.73803L4.91734 1.62334C4.89725 1.60847 4.90759 1.57662 4.93259 1.57641L5.12562 1.57494L5.18669 1.39181C5.19453 1.36809 5.22809 1.36809 5.236 1.39181Z" fill="#F5F5F5"/>
<path d="M5.236 2.34974L5.29706 2.53286L5.49009 2.53433C5.51509 2.53455 5.52544 2.56642 5.50534 2.58127L5.35006 2.69595L5.40831 2.87998C5.41587 2.9038 5.38872 2.92355 5.36837 2.90898L5.21134 2.79673L5.05431 2.90898C5.03397 2.92352 5.00687 2.9038 5.01437 2.87998L5.07262 2.69595L4.91734 2.58127C4.89725 2.56639 4.90759 2.53455 4.93259 2.53433L5.12562 2.53286L5.18669 2.34974C5.19453 2.32605 5.22809 2.32605 5.236 2.34974Z" fill="#F5F5F5"/>
<path d="M5.236 3.30768L5.29706 3.49081L5.49009 3.49228C5.51509 3.4925 5.52544 3.52437 5.50534 3.53921L5.35006 3.6539L5.40831 3.83793C5.41587 3.86174 5.38872 3.88149 5.36837 3.86693L5.21134 3.75468L5.05431 3.86693C5.03397 3.88146 5.00687 3.86174 5.01437 3.83793L5.07262 3.6539L4.91734 3.53921C4.89725 3.52434 4.90759 3.4925 4.93259 3.49228L5.12562 3.49081L5.18669 3.30768C5.19453 3.284 5.22809 3.284 5.236 3.30768Z" fill="#F5F5F5"/>
<path d="M5.236 4.26565L5.29706 4.44878L5.49009 4.45025C5.51509 4.45047 5.52544 4.48234 5.50534 4.49718L5.35006 4.61187L5.40831 4.7959C5.41587 4.81971 5.38872 4.83946 5.36837 4.8249L5.21134 4.71265L5.05431 4.8249C5.03397 4.83943 5.00687 4.81971 5.01437 4.7959L5.07262 4.61187L4.91734 4.49718C4.89725 4.48231 4.90759 4.45047 4.93259 4.45025L5.12562 4.44878L5.18669 4.26565C5.19453 4.24193 5.22809 4.24193 5.236 4.26565Z" fill="#F5F5F5"/>
<path d="M5.236 5.22356L5.29706 5.40669L5.49009 5.40816C5.51509 5.40837 5.52544 5.44025 5.50534 5.45509L5.35006 5.56978L5.40831 5.75381C5.41587 5.77762 5.38872 5.79737 5.36837 5.78281L5.21134 5.67056L5.05431 5.78281C5.03397 5.79734 5.00687 5.77762 5.01437 5.75381L5.07262 5.56978L4.91734 5.45509C4.89725 5.44022 4.90759 5.40837 4.93259 5.40816L5.12562 5.40669L5.18669 5.22356C5.19453 5.19981 5.22809 5.19981 5.236 5.22356Z" fill="#F5F5F5"/>
<path d="M5.97916 1.86145L6.04023 2.04458L6.23326 2.04605C6.25826 2.04627 6.2686 2.07814 6.24851 2.09299L6.09323 2.20767L6.15148 2.3917C6.15904 2.41552 6.13188 2.43527 6.11154 2.4207L5.95451 2.30845L5.79748 2.4207C5.77713 2.43523 5.75004 2.41552 5.75754 2.3917L5.81579 2.20767L5.66051 2.09299C5.64041 2.07811 5.65076 2.04627 5.67576 2.04605L5.86879 2.04458L5.92985 1.86145C5.93773 1.83777 5.97129 1.83777 5.97916 1.86145Z" fill="#F5F5F5"/>
<path d="M5.97916 2.81942L6.04023 3.00255L6.23326 3.00402C6.25826 3.00424 6.2686 3.03611 6.24851 3.05096L6.09323 3.16564L6.15148 3.34967C6.15904 3.37349 6.13188 3.39324 6.11154 3.37867L5.95451 3.26642L5.79748 3.37867C5.77713 3.3932 5.75004 3.37352 5.75754 3.34967L5.81579 3.16564L5.66051 3.05096C5.64041 3.03608 5.65076 3.00424 5.67576 3.00402L5.86879 3.00255L5.92985 2.81942C5.93773 2.79571 5.97129 2.79571 5.97916 2.81942Z" fill="#F5F5F5"/>
<path d="M5.97916 3.77737L6.04023 3.9605L6.23326 3.96197C6.25826 3.96218 6.2686 3.99406 6.24851 4.0089L6.09323 4.12359L6.15148 4.30762C6.15904 4.33143 6.13188 4.35118 6.11154 4.33662L5.95451 4.22437L5.79748 4.33662C5.77713 4.35115 5.75004 4.33143 5.75754 4.30762L5.81579 4.12359L5.66051 4.0089C5.64041 3.99403 5.65076 3.96218 5.67576 3.96197L5.86879 3.9605L5.92985 3.77737C5.93773 3.75365 5.97129 3.75365 5.97916 3.77737Z" fill="#F5F5F5"/>
<path d="M5.97916 4.73529L6.04023 4.91842L6.23326 4.91989C6.25826 4.92011 6.2686 4.95198 6.24851 4.96683L6.09323 5.08151L6.15148 5.26555C6.15904 5.28936 6.13188 5.30911 6.11154 5.29454L5.95451 5.18229L5.79748 5.29454C5.77713 5.30908 5.75004 5.28936 5.75754 5.26555L5.81579 5.08151L5.66051 4.96683C5.64041 4.95195 5.65076 4.92011 5.67576 4.91989L5.86879 4.91842L5.92985 4.73529C5.93773 4.71161 5.97129 4.71161 5.97916 4.73529Z" fill="#F5F5F5"/>
<path d="M6.72282 1.39181L6.78388 1.57494L6.97691 1.57641C7.00191 1.57662 7.01225 1.6085 6.99216 1.62334L6.83688 1.73803L6.89513 1.92206C6.90269 1.94587 6.87553 1.96562 6.85519 1.95106L6.69816 1.83881L6.54113 1.95106C6.52078 1.96559 6.49369 1.94587 6.50119 1.92206L6.55944 1.73803L6.40416 1.62334C6.38407 1.60847 6.39441 1.57662 6.41941 1.57641L6.61244 1.57494L6.6735 1.39181C6.68138 1.36809 6.71488 1.36809 6.72282 1.39181Z" fill="#F5F5F5"/>
<path d="M6.72282 2.34974L6.78388 2.53286L6.97691 2.53433C7.00191 2.53455 7.01225 2.56642 6.99216 2.58127L6.83688 2.69595L6.89513 2.87998C6.90269 2.9038 6.87553 2.92355 6.85519 2.90898L6.69816 2.79673L6.54113 2.90898C6.52078 2.92352 6.49369 2.9038 6.50119 2.87998L6.55944 2.69595L6.40416 2.58127C6.38407 2.56639 6.39441 2.53455 6.41941 2.53433L6.61244 2.53286L6.6735 2.34974C6.68138 2.32605 6.71488 2.32605 6.72282 2.34974Z" fill="#F5F5F5"/>
<path d="M6.72282 3.30768L6.78388 3.49081L6.97691 3.49228C7.00191 3.4925 7.01225 3.52437 6.99216 3.53921L6.83688 3.6539L6.89513 3.83793C6.90269 3.86174 6.87553 3.88149 6.85519 3.86693L6.69816 3.75468L6.54113 3.86693C6.52078 3.88146 6.49369 3.86174 6.50119 3.83793L6.55944 3.6539L6.40416 3.53921C6.38407 3.52434 6.39441 3.4925 6.41941 3.49228L6.61244 3.49081L6.6735 3.30768C6.68138 3.284 6.71488 3.284 6.72282 3.30768Z" fill="#F5F5F5"/>
<path d="M6.72282 4.26565L6.78388 4.44878L6.97691 4.45025C7.00191 4.45047 7.01225 4.48234 6.99216 4.49718L6.83688 4.61187L6.89513 4.7959C6.90269 4.81971 6.87553 4.83946 6.85519 4.8249L6.69816 4.71265L6.54113 4.8249C6.52078 4.83943 6.49369 4.81971 6.50119 4.7959L6.55944 4.61187L6.40416 4.49718C6.38407 4.48231 6.39441 4.45047 6.41941 4.45025L6.61244 4.44878L6.6735 4.26565C6.68138 4.24193 6.71488 4.24193 6.72282 4.26565Z" fill="#F5F5F5"/>
<path d="M6.72282 5.22356L6.78388 5.40669L6.97691 5.40816C7.00191 5.40837 7.01225 5.44025 6.99216 5.45509L6.83688 5.56978L6.89513 5.75381C6.90269 5.77762 6.87553 5.79737 6.85519 5.78281L6.69816 5.67056L6.54113 5.78281C6.52078 5.79734 6.49369 5.77762 6.50119 5.75381L6.55944 5.56978L6.40416 5.45509C6.38407 5.44022 6.39441 5.40837 6.41941 5.40816L6.61244 5.40669L6.6735 5.22356C6.68138 5.19981 6.71488 5.19981 6.72282 5.22356Z" fill="#F5F5F5"/>
</g>
<defs>
<clipPath id="clip0_421_312">
<rect width="16" height="11.4286" fill="white" transform="translate(0 0.285706)"/>
</clipPath>
</defs>
</svg>
