<svg width="32" height="32" viewBox="0 0 32 32" fill="none" xmlns="http://www.w3.org/2000/svg">
<path d="M29 3H3V29H29V3Z" fill="#FF4655"/>
<path d="M21.0821 13.1417V9.03504C21.0821 8.9717 21.0029 8.94531 20.9607 8.99282L16.474 14.5986C16.437 14.6408 16.4687 14.7094 16.5267 14.7094H19.7678C19.8575 14.7094 19.9367 14.6672 19.9894 14.5986L21.0135 13.3212C21.0557 13.2737 21.0821 13.2103 21.0821 13.1417ZM10.5884 13.3265L13.9561 17.5387C14.0089 17.6073 14.0933 17.6443 14.1831 17.6443H17.4241C17.4821 17.6443 17.5138 17.581 17.4769 17.5387L10.6412 8.99809C10.599 8.95059 10.5198 8.97698 10.5198 9.04032V13.147C10.5251 13.2103 10.5462 13.2737 10.5884 13.3265Z" fill="#111111"/>
<path d="M24.0592 20.1094H24.814V22.4213C24.814 22.453 24.8404 22.4741 24.8668 22.4741H25.2997C25.3313 22.4741 25.3524 22.4477 25.3524 22.4213V20.1094H26.3026C26.329 20.1094 26.3448 20.0777 26.329 20.0566L26.0017 19.6501C25.9753 19.6185 25.9331 19.5973 25.8909 19.5973H24.0539C24.0223 19.5973 24.0011 19.6237 24.0011 19.6501V20.0566C24.0064 20.083 24.0275 20.1094 24.0592 20.1094ZM5.81135 22.4266L8.02833 19.6501C8.04417 19.629 8.02833 19.5973 8.00194 19.5973H7.45297C7.41074 19.5973 7.36851 19.6185 7.34212 19.6501L5.76912 21.619V19.6501C5.76912 19.6185 5.74273 19.5973 5.71634 19.5973H5.2835C5.25183 19.5973 5.23071 19.6237 5.23071 19.6501V22.4266C5.23071 22.4583 5.25711 22.4794 5.2835 22.4794H5.70578C5.74273 22.4794 5.78496 22.4583 5.81135 22.4266ZM7.37907 22.4266L8.13918 21.4712L8.90457 22.4266C8.93096 22.4583 8.97319 22.4794 9.01541 22.4794H9.4377C9.46937 22.4794 9.49048 22.453 9.49048 22.4266V19.6501C9.49048 19.6185 9.46409 19.5973 9.4377 19.5973H9.08404C8.99958 19.5973 8.91512 19.6343 8.86234 19.7029L6.68759 22.4266C6.67175 22.4477 6.68759 22.4794 6.71398 22.4794H7.26294C7.31045 22.4794 7.3474 22.4583 7.37907 22.4266ZM8.95207 20.3997V21.6771L8.44006 21.0384L8.95207 20.3997ZM21.3302 22.4266L19.1132 19.6501C19.0868 19.6185 19.0446 19.5973 19.0024 19.5973H18.5801C18.5484 19.5973 18.5273 19.6237 18.5273 19.6501V22.4266C18.5273 22.4583 18.5537 22.4794 18.5801 22.4794H19.0024C19.0446 22.4794 19.0868 22.4583 19.1132 22.4266L19.8786 21.4712L20.6387 22.4266C20.6651 22.4583 20.7073 22.4794 20.7496 22.4794H21.3038C21.3355 22.4794 21.3513 22.4477 21.3302 22.4266ZM19.5777 21.0384L19.0657 21.6771V20.3997L19.5777 21.0384ZM13.4758 19.5234C12.6418 19.5234 11.9608 20.1991 11.9608 21.0384C11.9608 21.8724 12.6365 22.5533 13.4758 22.5533C14.3098 22.5533 14.9907 21.8777 14.9907 21.0384C14.9907 20.1991 14.3098 19.5234 13.4758 19.5234ZM13.4758 22.036C12.9374 22.036 12.5045 21.5873 12.5045 21.0384C12.5045 20.4841 12.9374 20.0407 13.4758 20.0407C14.0142 20.0407 14.447 20.4894 14.447 21.0384C14.447 21.5873 14.0142 22.036 13.4758 22.036ZM23.088 19.6501V21.619L21.515 19.6501C21.4886 19.6185 21.4463 19.5973 21.4041 19.5973H20.9818C20.9502 19.5973 20.929 19.6237 20.929 19.6501V20.9856C20.929 21.0173 20.9396 21.0489 20.9607 21.0753L21.4094 21.6401C21.4305 21.6665 21.4675 21.6507 21.4675 21.619V20.4577L23.0405 22.4266C23.0668 22.4583 23.1091 22.4794 23.1513 22.4794H23.5736C23.6053 22.4794 23.6264 22.453 23.6264 22.4266V19.6501C23.6264 19.6185 23.6 19.5973 23.5736 19.5973H23.1407C23.1144 19.5973 23.088 19.6185 23.088 19.6501ZM17.7989 20.2519V19.6501C17.7989 19.6185 17.7725 19.5973 17.7461 19.5973H15.5291C15.4974 19.5973 15.4763 19.6237 15.4763 19.6501V22.4266C15.4763 22.4583 15.5027 22.4794 15.5291 22.4794H15.962C15.9936 22.4794 16.0147 22.453 16.0147 22.4266V20.1146H17.2552L16.4159 21.1651C16.4001 21.1862 16.4001 21.2126 16.4159 21.2337L17.3713 22.4319C17.3977 22.4636 17.4399 22.4847 17.4822 22.4847H18.0364C18.0628 22.4847 18.0786 22.453 18.0628 22.4319L17.0863 21.1915L17.7672 20.3363C17.7883 20.3152 17.7989 20.2835 17.7989 20.2519ZM10.1978 22.4794H11.4805C11.5227 22.4794 11.5649 22.4583 11.5913 22.4266L11.9133 22.0202C11.9292 21.9991 11.9133 21.9674 11.8869 21.9674H10.6834V19.6554C10.6834 19.6237 10.657 19.6026 10.6306 19.6026H10.1978C10.1661 19.6026 10.145 19.629 10.145 19.6554V22.4319C10.145 22.453 10.1661 22.4794 10.1978 22.4794Z" fill="#111111"/>
</svg>
